<?xml version="1.0" encoding="UTF-8"?><svg id="Layer_2" xmlns="http://www.w3.org/2000/svg" viewBox="0 0 1125.31 363.73"><defs><style>.cls-1{fill:#552f6f;}.cls-1,.cls-2{stroke-width:0px;}.cls-2{fill:#9494c8;}</style></defs><g id="Layer_1-2"><path class="cls-2" d="m1070.86,216.86c2.03,1.73,3.78,3.22,5.89,5.01-5.76,6.02-4.27,12.54-2.83,19.18q3.79,17.37-7.3,31.37c-11.05,13.97-24.32,25.45-39.31,34.99-1.06.67-2.26,1.13-3.41,1.7-.24-.57-.57-1-.47-1.18,6.29-11.13,3.02-22.37.37-33.57-1.46-6.15-3.34-12.24-1.6-18.62.63-2.31,1.57-4.54,2.46-6.76,1.59-3.95,1.35-4.66-2.38-6.37-4.86-2.23-5.6-5.04-1.36-8.07,5.87-4.2,6.49-9.14,4.59-15.58-2.75-9.31-1.22-13,6.53-18.61,3.3-2.39,6.77-4.6,9.88-7.22,7.2-6.09,7.79-11.31,2.08-18.75-6.67-8.68-13.79-17.01-20.22-25.86-3.79-5.22-6.71-11.09-9.84-16.76-2.99-5.41-3.22-11.36-2.71-17.36.39-4.64,2.84-8.23,6.86-10.19,8.99-4.38,10.31-11.78,7.88-20.16-3.71-12.81-8.06-25.44-12.14-38.15-.33-1.04-.67-2.08-1.38-4.26,2.23.73,3.75.99,5.04,1.68,21.57,11.63,39.65,27.31,54.09,47.14,5.43,7.46,7.29,16.18,7.75,25.17.2,3.89-.83,7.7-4.13,10.9-1.55-.96-3.05-1.89-5.34-3.3-.87,2.22-2.1,4.24-2.45,6.41-1.39,8.73-.24,17.21,4.87,24.52,4.44,6.36,9.45,12.36,14.58,18.19,4.74,5.4,4.9,8.77-.41,13.59-1.64,1.49-3.55,2.7-5.2,4.18-3.48,3.11-3.62,4.78-.94,8.58,3.79,5.36,3.52,7.23-1.69,11.32-2.19,1.72-4.42,3.37-6.59,5.1-.41.33-.62.91-1.17,1.76Z"/><path class="cls-2" d="m20.04,311.58h36.82c0-6.16,0-12.03,0-17.9,0-1.86-.13-3.73.11-5.56.47-3.54,2.32-5.23,6.72-5.03,4.46.2,10.01-2.31,12.73,3.75.5,1.11.32,2.56.32,3.85.02,20.42.04,40.84,0,61.26-.01,6.21-1.26,7.36-7.55,7.51-12.12.28-12.33.06-12.33-12.27,0-6.44,0-12.87,0-19.64H20.04c0,3.73,0,7.2,0,10.67,0,5.01.09,10.03-.05,15.03-.12,4.55-1.52,5.92-6.05,6.16-2.59.14-5.2.15-7.79,0-4.38-.26-5.94-1.79-6.07-6.25-.15-5.38-.06-10.77-.06-16.15,0-15.22-.02-30.44.01-45.66.02-6.73,1.5-8.21,8.08-8.38,11.22-.29,11.91.38,11.91,11.7,0,5.51,0,11.03,0,16.93Z"/><path class="cls-2" d="m853.23,302.22c0-4.58-.06-8.81.02-13.04.09-5.22.96-6.03,6.22-6.22q12.28-.44,12.28,11.9c0,19.13.02,38.27-.01,57.4-.01,6.74-.49,7.27-7.36,7.14-3.66-.07-8.12,1.57-9.79-3.66-4.16,1.42-8.06,3.15-12.13,4.07-16.95,3.8-31.22-6.35-32.62-23.66-.49-5.98.03-12.33,1.56-18.12,2.81-10.61,11.42-16.9,22.5-17.65,3.13-.21,6.32-.18,9.45.11,3.09.29,6.13,1.04,9.9,1.72Zm-.05,12.52c-4.48-.69-8.27-1.66-12.09-1.77-5.84-.17-9.73,2.38-11.27,7.27-2.18,6.89-2.4,14.02.3,20.74.98,2.44,3.57,5.01,6.03,5.92,5.62,2.08,10.95,0,15.68-3.33.75-.53,1.29-1.88,1.3-2.86.1-8.33.06-16.66.06-25.98Z"/><path class="cls-2" d="m330.28,307.51c7.12-5.39,13.64-7.89,21.27-7.31,11.82.9,19.99,7.41,20.95,19.13.98,12,.42,24.12.5,36.19.02,2.46-1.33,3.75-3.78,3.87-.37.02-.74.04-1.11.04-15.17.02-13.12,1.23-13.24-12.36-.05-6.32.06-12.63-.05-18.95-.04-2.59-.21-5.23-.76-7.74-1.03-4.66-4.51-7.49-9.15-7.45-5.55.05-9.98,2.84-13.51,6.82-1.03,1.16-1.06,3.46-1.08,5.25-.1,9.1-.01,18.2-.06,27.31-.04,6.58-.57,7.1-6.88,7.15-12.97.1-11.59.39-11.6-11.28-.02-19.32-.02-38.64,0-57.96,0-6.61.64-7.18,7.41-7.26q11.08-.12,11.08,10.91c0,4.06,0,8.11,0,13.64Z"/><path class="cls-2" d="m493.09,323.15c.26-7.1-1.61-9.73-7.19-10.81-5.01-.97-9.7-.02-13.5,3.45-4.51,4.12-9.76,2.57-14.8,2.21-.83-.06-2.3-2.28-2.12-3.24.49-2.64,1.34-5.37,2.76-7.62,1-1.59,2.99-2.89,4.82-3.57,11.84-4.44,23.9-5,35.88-.79,8.42,2.96,12.76,9.54,13.06,18.28.38,11.13.09,22.27.16,33.41.02,3.53-1.58,5.13-5.07,5-1.67-.06-3.34-.08-5.01.02-3.31.2-6.32-.12-7.39-4.15-10.38,5.91-20.78,6.88-31.52,3.08-11.09-3.92-15.62-15.48-10.01-25.19,2.36-4.08,5.99-6.76,10.41-7.81,4.83-1.16,9.82-1.8,14.78-2.17,4.76-.36,9.56-.08,14.73-.08Zm-.15,12.34c-5.81,0-11.34-.28-16.83.09-4.4.3-7.02,3.26-6.82,6.63.21,3.35,3.09,6.06,7.42,6.08,3.46.01,7.05-.45,10.36-1.43,6.72-1.98,7.24-3.22,5.87-11.37Z"/><path class="cls-2" d="m200.62,355.24c-10.64,6.05-21.08,7.02-31.77,3.08-6.94-2.55-11.57-7.29-11.98-15.16-.44-8.41,3.6-14.96,11.71-17.45,4.89-1.5,10.14-2.06,15.27-2.48,4.93-.4,9.92-.09,14.77-.09.8-6.37-.91-9.27-5.96-10.59-4.95-1.3-9.98-.84-13.63,2.67-4.49,4.32-9.61,3.05-14.66,3.07-2.26,0-3.19-1.59-3.22-3.73-.08-4.8,2.35-8.24,6.37-10.31,2.92-1.51,6.2-2.92,9.41-3.17,6.99-.55,14.12-1.04,21.06-.27,12.69,1.41,19.85,9.84,20.07,22.59.17,10.02.09,20.05.02,30.07-.04,5.03-.87,5.8-5.81,5.97-1.67.06-3.34-.08-5.01.03-3.02.19-5.54-.41-6.63-4.23Zm-1.77-19.6c-6.19,0-12.07-.33-17.88.12-3.82.3-5.85,3.06-5.82,6.25.03,3.14,2.2,5.87,5.98,6.07,3.78.2,7.76-.13,11.41-1.11,7.03-1.88,7.66-3.33,6.3-11.34Z"/><path class="cls-2" d="m107.12,336.33c.62,7.83,3.66,11.31,10.38,11.96,4.89.48,9.65.13,13.53-3.58,4.19-4,9.39-2.82,14.27-2.22,1.04.13,2.79,2.98,2.48,4.09-.82,2.9-2.16,5.93-4.14,8.14-1.61,1.8-4.33,2.94-6.76,3.6-9.43,2.58-18.99,3.4-28.61.96-8.89-2.25-15.18-7.44-18.31-16.26-2.71-7.62-2.86-15.34-.76-23.03,2.48-9.06,8.23-15.41,17.3-18.09,9.1-2.68,18.31-2.67,27.32.79,12.95,4.97,17.01,17.89,16.12,29.53-.27,3.54-2.92,3.81-5.69,3.81-10.4-.01-20.79-.01-31.19.02-1.98,0-3.95.17-5.93.27Zm0-11.56c8.17.11,15.96.21,23.76,0-.35-8.68-4.85-13.03-12.25-12.79-7.22.23-11.48,4.64-11.51,12.79Z"/><path class="cls-2" d="m592.97,336.05c.38,5.75,2.12,9.61,6.61,11.21,5.62,2,11.7,2.44,16.36-1.75,4.35-3.91,9.12-3.53,14.08-3.42,3.1.07,4.15,1.98,3.91,4.85-.49,6.06-4.42,9.34-9.64,10.99-8.21,2.59-16.71,3.67-25.28,2.22-22.7-3.85-33.14-29.45-19.88-48.54,3.42-4.92,8.11-8.2,13.79-9.83,8.39-2.4,16.94-2.5,25.23.24,12.48,4.12,19.64,16.53,17.95,29.96-.45,3.53-2.59,4.07-5.44,4.07-10.39-.01-20.78,0-31.18,0-1.99,0-3.98,0-6.53,0Zm23.66-11.62c.68-7.48-3.43-12.07-10.86-12.43-7.6-.38-12.36,4.17-12.57,12.43h23.44Z"/><path class="cls-2" d="m705.39,344.32c2.95,0,4.96,0,6.97,0,12.23,0,24.46-.06,36.7.03,6.93.05,10.48,6.31,7.13,12.35-1.51,2.72-4.15,2.75-6.8,2.75-13.16,0-26.32,0-39.48,0-5.75,0-11.49.06-17.24-.02-5.77-.08-7.37-1.56-7.39-7.24-.07-20.59-.08-41.18,0-61.78.02-5.55,1.85-7.25,7.39-7.44,13.25-.44,12.83,1.32,12.74,12.01-.12,14.1-.03,28.2-.03,42.3v7.03Z"/><path class="cls-2" d="m402.06,330.45c0,1.11-.07,2.23.01,3.34.44,5.62,1.88,10.71,7.82,12.98,6.39,2.44,13.86.64,18.3-4.3,3-3.34,10.85-5.04,14.82-3.26,2.35,1.05,2.56,3.05,2.21,5.15-.88,5.26-3.57,9.35-8.38,11.79-8.74,4.42-18.09,5.14-27.64,4.09-2.57-.28-5.12-.91-7.61-1.61-7.84-2.22-13.48-7.15-16.25-14.76-3.27-9.01-3.23-18.28.08-27.29,2.73-7.44,8.24-12.44,15.81-14.53,11.37-3.13,22.77-2.96,33.77,1.76,5.5,2.36,8.93,6.56,9.5,12.7.36,3.92-.6,4.96-4.57,5.21-5.27.32-9.79-.08-13.78-4.95-3.93-4.81-10.16-4.71-16.03-2.94-5.47,1.66-7.13,6.07-7.86,11.07-.27,1.83-.23,3.7-.33,5.55h.13Z"/><path class="cls-2" d="m782.96,304.04c4.17,0,7.47-.02,10.76,0,6.71.06,7.32.63,7.29,6.72-.03,5.77-.63,6.3-7.04,6.37-2.97.03-5.94.07-8.91.13-.35,0-.7.21-1.93.61-.12,7.57-.97,15.48.54,23.3.88,4.55,4.24,6.65,9.05,6.63,2.41,0,4.81-.3,7.22-.42,2.77-.13,4.59.85,5.02,3.92.61,4.42-.23,7.34-3.18,7.92-8.81,1.72-17.71,2.7-26.3-.96-5.99-2.54-8.91-7.63-10.16-13.76-.48-2.35-.76-4.79-.77-7.2-.07-16.17-.11-32.33-.03-48.5.03-4.86,1.05-5.79,6.02-5.86,13.91-.2,12.37-.37,12.41,11.68,0,2.76,0,5.52,0,9.38Z"/><path class="cls-2" d="m281,304.05c4.75,0,8.43-.06,12.1.01,5.42.11,6.3,1.1,6.24,6.72-.05,5.27-.93,6.23-6.07,6.34-3.68.08-7.37.01-11.76.01-.81,8.51-1.08,16.59.5,24.56.74,3.75,3.72,5.95,7.75,6,2.78.04,5.55-.21,8.33-.29,2.74-.09,4.92.7,4.8,3.94-.11,2.95,1.4,6.96-3.04,7.88-8.59,1.78-17.28,2.62-25.76-.73-5.42-2.14-8.64-6.39-10.04-11.86-.82-3.2-1.19-6.59-1.22-9.9-.13-15.59-.09-31.19-.06-46.78.01-6.37.62-6.92,7.06-7.01,12.57-.16,11.13.16,11.17,11.23.01,2.94,0,5.88,0,9.86Z"/><path class="cls-2" d="m544.51,307.09c6.51-4.38,12.96-6.96,20.29-6.89,4.86.05,5.52.59,5.74,5.31.41,8.9-.3,9.52-9.22,8.97-2.55-.16-5.24-.11-7.7.51-6.75,1.7-9.96,6.19-9.97,13.28,0,8.54.05,17.08-.03,25.63-.05,4.77-.74,5.37-5.53,5.53-1.85.06-3.71.03-5.56.01-6.62-.05-7.03-.43-7.08-6.83-.03-4.27,0-8.54,0-12.81,0-10.4-.02-20.8,0-31.2.02-7.17.25-7.36,7.63-7.4.56,0,1.11,0,1.67,0,4.32.05,9.28-1.12,9.76,5.88Z"/><path class="cls-2" d="m249.43,321.11c0,10.76.04,21.51-.02,32.27-.03,5.47-.59,6.04-6.12,6.05-13.55.05-12.02.94-12.05-11.83-.04-19.1-.03-38.2,0-57.31,0-6.78.52-7.26,7.26-7.34q10.93-.14,10.93,10.89c0,9.09,0,18.17,0,27.26Z"/><path class="cls-1" d="m246.24,65.18c-.47.9-1.05,1.75-1.39,2.7-18.67,52.25-37.45,104.47-55.9,156.81-4.68,13.28-13.79,20.84-27.84,19.81-5.54-.41-11.13-.04-16.7-.07-10.4-.06-19.23-5.95-22.75-15.73-17.32-48.2-34.52-96.45-51.77-144.68-2.14-5.99-4.38-11.95-6.58-17.92-.51.1-1.03.2-1.54.29v6.37c0,49.99,0,99.98,0,149.97,0,16.75-4.89,21.7-21.39,21.7-7.8,0-15.6.06-23.39-.02-10.38-.11-16.8-6.34-16.81-16.62-.05-69.69-.05-139.37,0-209.06C.2,8.8,6.2,2.62,16.14,2.54c22.46-.18,44.93-.19,67.39,0,10.26.09,17.59,6.18,21.21,16.69,16.04,46.49,32.09,92.98,48.14,139.46.29.85.68,1.68,1.56,3.83,1.18-2.82,2-4.53,2.62-6.31,15.83-45.78,31.61-91.57,47.46-137.34,3.85-11.13,11.23-16.36,23.06-16.4,21.16-.06,42.33-.07,63.49,0,12.05.04,18.04,6.13,18.05,18.31.03,68.39.03,136.77,0,205.16,0,12.21-6.36,18.44-18.59,18.47-8.54.02-17.08.04-25.62,0-11.3-.06-17.57-6.29-17.58-17.65-.04-51.85-.02-103.69-.02-155.54v-5.83c-.36-.07-.72-.14-1.08-.22Z"/><path class="cls-1" d="m966.21,248.83c2.71-2.12,4.83-3.78,6.96-5.44,4.83-3.79,5.56-7.32,2.61-12.6-8-14.32-6.82-18.17,7.84-25.79,4.93-2.56,10.04-4.88,14.67-7.91,8.01-5.24,9.06-11.15,3.12-18.73-11.9-15.19-24.33-29.98-36.15-45.24-11.99-15.48-11.76-19.01,2.93-31.67,6.92-5.96,8.61-12.41,7.29-21.13-3.83-25.34-12.66-49.16-21.05-73.14-.61-1.75-1.32-3.46-1.91-5.22-.17-.49-.07-1.08-.11-1.97h172.88v363.73h-213.35c-1.29-8.29-1.13-7.85,6.19-10.5,13.55-4.9,27.24-9.64,40.21-15.84,10.72-5.12,18.53-13.72,16.29-27-.93-5.53-3.32-11-5.95-16.03-5.95-11.38-9.04-19.45,4.07-31.63,4.63-4.3,3.91-7.12-1.57-10.22-1.54-.87-2.89-2.1-5-3.67Zm109.29-122.29c1.12-2.86,2.53-5.09,2.82-7.45,1.25-9.95-.56-19.76-6.76-27.4-8.84-10.9-18.41-21.4-28.87-30.73-8.43-7.52-18.64-13.03-28.06-19.44l-1.29,1.36c2.62,7.65,5.43,15.24,7.81,22.96,2.23,7.25,4.38,14.56,5.87,21.99,1.4,6.99-.74,12.77-7.74,16.12-5.88,2.81-8.27,8.08-7.8,14.23.35,4.55,1.06,9.43,3.09,13.4,3.86,7.56,8.43,14.84,13.36,21.76,5.27,7.4,11.44,14.15,16.94,21.39,5.06,6.67,4.57,11.97-1.6,17.69-3.11,2.89-6.68,5.31-10.16,7.77-8.65,6.11-9.89,9.12-7.01,19.29,1.74,6.14,1.28,11.11-4.6,15.08-4.19,2.83-3.71,5.69,1.03,7.5,3.54,1.35,4.31,3.5,2.74,6.43-4.58,8.58-3.15,17.27-.91,26.03,2.82,11,5.33,22.01-.33,33.91,2.25-1.2,3.58-1.79,4.78-2.57,15.08-9.8,27.8-22.1,39.35-35.88,7.19-8.58,8.99-17.27,5.6-27.81-2.18-6.76-4.88-14.09,2.57-19.98-2.41-2.05-4.17-3.54-6.54-5.56,3.71-3.16,7.11-5.92,10.34-8.86,2.41-2.19,3.54-4.44.89-7.64-4.53-5.45-4.12-7.24,1.56-11.76,1.45-1.16,2.98-2.24,4.29-3.54,4.08-4.05,4.08-7.24.14-11.45-2.54-2.71-5.14-5.37-7.54-8.2-6.34-7.44-11.67-15.47-13.08-25.4-.87-6.12-.32-12.08,3.83-17.64,1.72,1.44,3.05,2.55,5.25,4.39Z"/><path class="cls-1" d="m750.37,1.28c16.17.48,35.55-1.65,54.51,3.75,18.93,5.39,36.15,13.56,48.91,29.18,7.04,8.62,10.84,18.51,10.46,29.82-.34,10.02-6.07,16.6-16.04,17.24-7.76.49-15.59.28-23.37-.05-8.85-.38-15.12-5.44-18.68-13.07-6.42-13.74-18.02-19.12-31.86-19.59-20.77-.7-41.58-.34-62.37-.08-4.17.05-8.46,1.24-12.45,2.62-6.85,2.36-11.05,7.25-11.91,14.69-.82,7.1,2.73,12.42,8.52,14.95,10.3,4.49,20.93,8.57,31.81,11.32,26.41,6.68,53.13,12.12,79.54,18.81,13.69,3.47,26.51,9.53,38.14,17.79,18.99,13.48,26.92,31.8,24.77,54.93-2.21,23.81-13.88,40.66-35.7,50.4-17.41,7.77-35.94,10.86-54.74,11.14-27.64.41-55.4,1.18-82.91-.92-25.38-1.93-48.19-12.06-64.79-32.73-6.45-8.03-9.93-17.32-9.77-27.82.17-11.36,6.59-18.04,17.88-18.26,6.31-.12,12.63.08,18.94-.04,9.56-.2,16.81,4.11,20.79,12.4,7.24,15.11,19.8,20.39,35.31,20.53,21.91.2,43.82.26,65.72-.12,5.42-.09,11.15-1.29,16.16-3.37,12.51-5.2,14.06-20.32,3-28.1-11.37-7.99-24.91-10.29-38.05-13.44-25.24-6.04-50.68-11.32-75.68-18.2-11.11-3.05-21.88-8.33-31.91-14.14-24.32-14.08-33.59-35.28-29.2-63.16,4.21-26.78,21.31-41.42,45.79-49.12,17.51-5.51,35.57-7.32,53.84-7.36,7.43-.02,14.85,0,25.35,0Z"/><path class="cls-1" d="m358.18,123.11c0-33.81-.02-67.62,0-101.43.01-14.17,5-19.23,19.07-19.21,45.47.09,90.94.04,136.4.46,16.08.15,31.7,3.58,46.32,10.56,24.01,11.45,37.31,31.25,42.01,56.79,3.94,21.41,3.72,42.97-3.04,63.93-9.45,29.32-30.65,45.87-59.94,51.99-12.78,2.67-26.09,3.47-39.19,3.79-24.11.58-48.25.32-72.37.05-5.27-.06-6.66,1.68-6.5,6.67.33,9.83.13,19.69.08,29.53-.06,12.28-5.89,18.14-18.01,18.17-8.91.02-17.82.02-26.72,0-11.9-.03-18.08-6.16-18.1-18.21-.05-34.37-.02-68.73-.02-103.1Zm62.87-27.01c0,13.93.13,27.86-.08,41.78-.06,4.19,1.43,5.42,5.49,5.39,20.96-.18,41.93.13,62.89-.29,7.54-.15,15.16-1.34,22.53-3,10.54-2.37,19.45-7.84,24.07-18.05,7.59-16.76,7.83-33.99.18-50.68-6.74-14.7-20.4-19.81-35.22-20.44-25.19-1.07-50.43-.84-75.64-1.3-4.25-.08-4.26,2.36-4.25,5.36.04,13.74.02,27.48.02,41.23Z"/></g></svg>