<?xml version="1.0" encoding="UTF-8"?><svg id="Layer_2" xmlns="http://www.w3.org/2000/svg" viewBox="0 0 1122.57 473.44"><defs><style>.cls-1{fill:none;}.cls-1,.cls-2,.cls-3{stroke-width:0px;}.cls-2{fill:#522d6e;}.cls-3{fill:#9594d2;}</style></defs><g id="Layer_1-2"><path class="cls-1" d="m363.52,432.4c3.65-.05,6.47-1.71,7.78-5.18.82-2.16,1.12-4.52,1.62-6.61-.45-2.41-.61-4.57-1.28-6.57-1.18-3.53-3.95-5.26-7.58-5.49-3.61-.23-6.67,1.07-8.3,4.39-2.33,4.75-2.45,9.74-.29,14.6,1.5,3.37,4.41,4.9,8.04,4.85Z"/><path class="cls-1" d="m264.64,428.05c.23,2.9,2.13,4.05,4.7,4.35,7.21.86,11.17-3.62,10.26-11.84-3.83.69-7.52,1.26-11.17,2.03-2.87.6-4.01,2.59-3.78,5.45Z"/><path class="cls-1" d="m448.45,315.12c-3.79.13-6.56,2.99-6.53,6.23.03,3.27,2.75,5.89,6.57,6.24,5.4.5,10.42-.8,15.09-3.43.79-.44,1.59-1.51,1.69-2.38.25-2.09.08-4.22.08-6.7-6.01,0-11.46-.14-16.91.05Z"/><path class="cls-1" d="m112.17,293.15c-7.76-.06-12.17,4.27-11.88,11.96h23.07c.43-7.39-3.91-11.9-11.19-11.96Z"/><path class="cls-1" d="m476.28,431.9c5.25,1.72,10.08-.61,11.86-5.72,2.56-7.34.08-15.45-5.45-17.09-1.85-.55-4.06-.59-5.94-.16-4.63,1.04-7.03,5.28-7,11.59.03,6.01,2.32,10,6.53,11.38Z"/><path class="cls-1" d="m93.95,428.28c.4,2.84,2.35,3.92,4.94,4.15,7.37.66,11.65-4.41,9.93-11.84-3.65.65-7.35,1.17-10.97,2.01-3.06.71-4.32,2.76-3.9,5.69Z"/><path class="cls-1" d="m397.63,129.66v3.94c1.4.09,2.34.19,3.28.19,18.78,0,37.57.2,56.35-.09,7.79-.12,15.67-.72,23.32-2.15,14.59-2.73,24.75-10.98,28.34-25.9,2.49-10.36,2.48-20.86.02-31.23-2.86-12.08-10.17-20.57-22.12-24.18-6.4-1.94-13.17-3.43-19.82-3.61-21.77-.57-43.57-.37-65.35-.64-3.33-.04-4.11.99-4.09,4.19.12,26.49.07,52.99.07,79.48Z"/><path class="cls-1" d="m59.28,408.47c-5.24-.13-8.36,3.03-8.75,9.05h16.78c-.25-5.96-2.97-8.93-8.02-9.05Z"/><path class="cls-1" d="m577.31,294.93c-4.47-2.68-9.29-2.65-13.8-.13-3.81,2.14-4.96,5.88-5.06,10.34h23.5c-.02-4.33-.98-8.02-4.64-10.21Z"/><path class="cls-1" d="m723.04,428.14c.45,2.91,2.4,4.1,5.15,4.3,7.34.53,11.47-4.4,9.86-11.86-3.65.65-7.33,1.17-10.94,2-3.03.69-4.48,2.86-4.06,5.57Z"/><path class="cls-1" d="m583.37,428.02c.21,2.75,2.13,4.26,5.34,4.42,7.18.36,10.81-4.02,9.72-11.9-3.79.68-7.36,1.28-10.9,1.97-2.99.58-4.38,2.53-4.15,5.51Z"/><path class="cls-1" d="m804.59,309.37v-5.79q0-8.38-8.3-9.61c-8.62-1.28-14.08,2.1-15.2,10.22-.62,4.49-.44,9.24.31,13.72,1.14,6.81,5.39,9.81,12.17,8.92,2.89-.38,5.62-1.92,8.42-2.94,1.97-.72,2.73-2.09,2.64-4.22-.14-3.43-.04-6.86-.03-10.29Z"/><path class="cls-1" d="m170.38,315.22c-3.58.19-5.77,2.96-5.72,6.19.04,3.2,2.31,5.93,5.89,6.03,3.47.09,7.18-.04,10.41-1.16,8.42-2.9,7.37-2.23,6.89-11.14-5.95,0-11.72-.22-17.47.08Z"/><path class="cls-1" d="m815.72,417.59c.02-6.07-3.44-9.47-8.91-9.11-4.94.33-8.14,4.13-7.52,9.11h16.43Z"/><path class="cls-3" d="m1083.04,226.13c-8.62-8.71-16.92-17.68-22.55-28.74-5.74-11.29-7.43-22.92-2.6-34.98.47-1.17,1.6-2.07,2.43-3.1,1.01.82,2,1.65,3.02,2.46,1.03.81,2.05,2.16,3.12,2.22.79.04,1.96-1.48,2.47-2.55,2.68-5.59,3.21-11.47,2.05-17.54-1.51-7.88-2.79-15.92-7.42-22.66-17.42-25.35-39.71-45.46-66.41-60.7-3.68-2.1-7.46-4.01-11.59-6.23,2.78,8.06,5.41,15.47,7.88,22.94,4,12.05,9.49,23.71,10.88,36.49,1.2,11.07-.03,15.76-8.76,20.7-1.03.58-2,1.25-3.02,1.85-4.11,2.39-6.58,5.95-7.89,10.5-2.22,7.73-.64,15.09,2.16,22.25,5.27,13.44,13.86,24.83,22.76,36.01,6.41,8.05,13.06,15.93,19.17,24.2,4.62,6.26,3.88,12.61-1.3,18.43-.92,1.04-1.85,2.12-2.95,2.96-5.47,4.13-10.96,8.25-16.53,12.25-4.08,2.93-6.83,6.83-6.94,11.75-.09,3.52.99,7.16,2.02,10.61,2.94,9.85,2.04,12.92-6.08,18.98-.43.32-1.03.56-1.25.99-.87,1.72-2.24,3.48-2.28,5.25-.05,2.5,2.36,3.27,4.51,3.82,5.5,1.4,6.43,3.66,3.74,8.76-3.29,6.22-4.89,12.8-3.52,19.82,1.33,6.8,2.85,13.56,4.3,20.34,1.89,8.82,3.7,17.71,1.49,26.66-.97,3.92-3.08,7.56-4.67,11.31.41-.22.97-.48,1.51-.8,24.46-14.64,44.78-33.68,61.69-56.64,5.01-6.8,5.41-13.72,4.16-21.23-.91-5.47-2.47-10.82-3.66-16.24-1.32-5.97-1.73-11.72,3.98-16.04.54-.41.57-2.29.1-3.03-.7-1.1-1.93-2-3.13-2.62-4.05-2.13-4.33-3.63-.78-6.57,2.97-2.46,6.24-4.57,9.14-7.1,5.31-4.62,5.41-6.78,1.01-11.94-.14-.16-.27-.33-.4-.5-3.95-4.92-3.61-8,1.25-12.02,3.22-2.66,6.66-5.12,9.49-8.15,3.61-3.88,3.1-8.45-.59-12.17Z"/><path class="cls-3" d="m4.9,337.62c2.68.07,5.37.05,8.05.01,3.91-.05,5.44-1.55,5.45-5.45.03-7.08,0-14.16.02-21.24,0-1.13.11-2.26.17-3.34h34.89c0,1.44,0,2.61,0,3.77,0,7.08-.03,14.16.02,21.24.02,3.34,1.61,4.92,4.91,5.01,2.58.07,5.15.04,7.73.01,4.3-.04,5.77-1.5,5.77-5.81.02-13.3,0-26.61,0-39.91,0-6.76.02-13.52-.01-20.28-.02-3.79-1.45-5.26-5.19-5.37-2.68-.07-5.37-.07-8.05,0-3.71.1-5.15,1.6-5.17,5.4-.04,6.01,0,12.02-.02,18.03,0,1.15-.1,2.29-.15,3.56-.88.09-1.5.21-2.12.21-10.73.01-21.46,0-32.78,0,0-1.58,0-2.73,0-3.88,0-5.9.02-11.8,0-17.7-.02-4.13-1.44-5.56-5.61-5.62-2.79-.04-5.59-.05-8.37.05-2.81.1-4.4,1.65-4.41,4.47-.03,20.71-.04,41.42,0,62.12,0,3.06,1.71,4.63,4.88,4.72Z"/><path class="cls-3" d="m817.35,266.22c-2.46.12-4.93.01-7.4.02-5,.01-5.33.33-5.35,5.24-.02,4.24,0,8.47,0,12.74-4.65-.74-8.72-1.62-12.83-2-13.42-1.23-24.15,5.79-27.39,17.83-1.88,6.97-1.91,14.01.04,20.96,2.52,8.97,8.2,14.97,17.44,17.04,7.26,1.63,14.28.58,20.85-3.02.97-.53,1.96-1.04,3.36-1.78-.21,3.75,1.62,4.59,4.46,4.43,2.35-.14,4.72-.11,7.08,0,2.75.11,3.89-1.11,3.83-3.84-.09-4.61-.02-9.22-.02-13.83,0-16.51-.05-33.02.04-49.54.02-3.01-1.03-4.38-4.11-4.23Zm-15.36,57.66c-2.8,1.02-5.53,2.56-8.42,2.94-6.78.89-11.03-2.11-12.17-8.92-.75-4.48-.92-9.23-.31-13.72,1.12-8.13,6.58-11.5,15.2-10.22q8.3,1.23,8.3,9.61v5.79c0,3.43-.11,6.87.03,10.29.09,2.13-.67,3.5-2.64,4.22Z"/><path class="cls-3" d="m298.24,337.64c2.79.02,5.58.03,8.37,0,3.55-.03,4.32-.78,4.33-4.37.03-9.11.28-18.24-.11-27.34-.18-4.16,1.39-6.63,4.58-8.7,4.3-2.8,8.79-4.93,13.82-2.31,4.81,2.5,5.15,7.28,5.18,11.98.05,8.9.07,17.8-.01,26.7-.03,2.83,1.01,4.18,3.96,4.07,3.11-.12,6.22-.1,9.33,0,2.48.08,3.6-1.14,3.58-3.46-.09-11.25.09-22.52-.43-33.76-.39-8.51-5.96-15.09-13.73-17.18-8.28-2.23-16.15-1.45-23.18,3.96-.74.57-1.55,1.06-2.97,2.01,0-6.68.02-12.67,0-18.66-.02-3.6-.72-4.28-4.37-4.33-2.79-.04-5.58-.04-8.37,0-3.67.05-4.31.68-4.32,4.34-.02,9.54,0,19.08,0,28.63,0,11.37-.01,22.73,0,34.1,0,3.61.72,4.29,4.35,4.32Z"/><path class="cls-3" d="m449.36,304.04c-5.95.04-11.79.66-16.99,3.92-9.77,6.13-9.98,20.13-.33,26.46,5.9,3.87,12.61,5.04,19.42,4.04,5.18-.77,10.19-2.69,15.35-4.13.05,3.04,2.41,3.55,5.42,3.33,2.03-.15,4.08-.11,6.11,0,2.85.15,4.11-1.03,4.08-3.95-.08-10.4.04-20.8-.07-31.21-.09-8.7-4.62-15.29-12.86-18.11-3.69-1.26-7.71-1.95-11.61-2.13-7.07-.34-14.16-.04-20.87,2.74-3.76,1.56-6.58,4.03-7.64,8.11-1.17,4.49-.03,5.93,4.58,5.95,1.72,0,3.47.21,5.14-.06,1.73-.28,3.87-.56,4.98-1.68,3.51-3.57,7.7-4.35,12.37-4.15,6.27.26,9.41,4.05,8.52,10.88-5.15,0-10.38-.03-15.6,0Zm16,11.03c0,2.48.17,4.62-.08,6.7-.1.86-.91,1.93-1.69,2.38-4.67,2.63-9.7,3.93-15.09,3.43-3.82-.35-6.54-2.97-6.57-6.24-.03-3.23,2.74-6.1,6.53-6.23,5.45-.18,10.9-.05,16.91-.05Z"/><path class="cls-3" d="m204.7,301.03c-.25-8.09-4.62-13.81-12.21-16.48-3.97-1.4-8.33-2.12-12.55-2.31-7.07-.31-14.18.02-20.83,2.96-3.26,1.44-5.82,3.67-6.92,7.19-1.58,5.04-.37,6.65,4.88,6.66,1.07,0,2.15-.06,3.22.01,3.05.22,5.45-.74,7.85-2.84,1.8-1.58,4.5-2.59,6.93-2.92,8.02-1.09,11.99,1.56,12.92,7.93.28,1.92-.21,2.82-2.28,2.79-4.62-.06-9.26-.31-13.84.09-4.65.4-9.4,1.01-13.83,2.39-4.91,1.53-8.41,5.08-9.81,10.27-2.6,9.6,2.67,18,13.21,20.71,9.66,2.49,18.93,1.54,28.07-4.4-.18,4.07,1.93,4.73,4.8,4.57,2.36-.13,4.73-.1,7.08-.01,2.49.09,3.54-1.13,3.53-3.48-.04-11.05.13-22.11-.21-33.15Zm-23.75,25.26c-3.23,1.11-6.94,1.25-10.41,1.16-3.57-.1-5.85-2.83-5.89-6.03-.04-3.23,2.14-6,5.72-6.19,5.75-.3,11.52-.08,17.47-.08.49,8.91,1.53,8.24-6.89,11.14Z"/><path class="cls-3" d="m589.49,315.55c10-.08,10.42,1.78,9.56-10.5-.71-10.21-6.99-18.66-16.96-21.08-5.81-1.42-12.11-1.71-18.11-1.3-11.06.76-19.44,8.2-21.73,18.85-.91,4.23-1.05,8.74-.84,13.09.56,11.36,7.42,19.82,18.12,22.74,2.47.67,5.05,1.09,7.6,1.23,7.65.44,15.23.08,22.46-2.85,3.53-1.43,6.29-3.74,7.41-7.52,1.46-4.93.27-6.47-4.84-6.47-1.83,0-3.68-.18-5.47.08-1.42.21-3.2.56-4.08,1.52-3.58,3.9-8.07,4.52-12.94,4.28-6.96-.33-10.87-4.41-11-12.06h3.75c9.02,0,18.04.06,27.06-.02Zm-31.03-10.41c.1-4.46,1.25-8.2,5.06-10.34,4.51-2.53,9.33-2.56,13.8.13,3.66,2.19,4.61,5.89,4.64,10.21h-23.5Z"/><path class="cls-3" d="m132.51,315.57q8.67,0,8.34-8.72c-.45-11.8-7.53-20.8-18.78-23.54-6.33-1.54-12.75-1.64-19.13-.22-10.43,2.33-17.24,8.58-19.19,19.16-.86,4.66-1.02,9.64-.46,14.34,1.14,9.53,6.09,16.74,15.46,19.93,10.83,3.68,21.75,2.97,32.46-.82,3.58-1.27,6.39-3.7,7.35-7.54,1.29-5.19.13-6.86-4.56-6.45-1.81.16-3.69-.2-5.46.11-1.61.28-3.57.7-4.61,1.79-4.38,4.55-9.79,4.59-15.26,3.65-5.55-.95-8.58-5.45-8.2-11.7,10.84,0,21.44,0,32.05,0Zm-32.21-10.46c-.28-7.69,4.12-12.02,11.88-11.96,7.28.05,11.62,4.57,11.19,11.96h-23.07Z"/><path class="cls-3" d="m664.88,337.64c13.96,0,27.92,0,41.87,0,5.16,0,6.34-1.22,6.35-6.48,0-.32,0-.64,0-.97-.02-4.84-1.43-6.29-6.34-6.32-6.01-.04-12.03-.01-18.04-.01-7.83,0-15.65,0-24,0,0-1.96,0-3.44,0-4.92,0-15.56.01-31.11,0-46.67,0-4.49-1.47-5.96-5.93-6.02-2.47-.03-4.94-.06-7.41.01-3.64.1-5.1,1.5-5.1,5.1-.03,20.38-.03,40.77,0,61.15,0,3.58,1.51,5.06,5.07,5.11,4.51.05,9.02.02,13.53.02Z"/><path class="cls-3" d="m387.28,294.37c6.09-1.25,11.81-.9,15.91,4.69,1.58,2.15,3.52,3.34,6.28,3.16,1.92-.13,3.87-.07,5.8-.02,2.44.06,3.52-1.08,3.49-3.51-.07-6.17-3.12-10.76-8.61-12.79-5.94-2.19-12.32-3.19-18.51-4.71-.08.28-.15.56-.23.84-2.46.17-4.93.25-7.39.51-11.79,1.28-19.75,8.4-22.2,19.99-1.28,6.07-1.12,12.17.54,18.15,2.01,7.26,6.42,12.69,13.54,15.32,11.32,4.19,22.75,3.73,33.95-.56,4.61-1.77,8.01-5.12,9.07-10.15,1.2-5.7.01-7.15-5.05-6.73-.96.08-1.94.09-2.9,0-3.32-.34-5.52,1.16-7.73,3.61-1.75,1.94-4.36,3.81-6.85,4.27-10.09,1.88-16.3-1.16-17.52-10.66-.45-3.48-.41-7.1-.01-10.59.59-5.17,2.6-9.63,8.42-10.83Z"/><path class="cls-3" d="m260.95,266.25c-2.9.04-5.8-.02-8.7,0-4.21.04-4.75.59-4.76,4.93,0,14.05-.04,28.11.02,42.16.01,3.1.23,6.22.6,9.29,1.03,8.42,6.3,14.53,14.44,15.39,6.11.65,12.37-.02,18.56-.19,3.06-.08,4.44-1.75,4.1-4.83-.1-.95-.04-1.93-.02-2.89.04-2.27-1.08-3.41-3.33-3.35-2.15.05-4.29.15-6.43.32-6.7.51-10.61-2.9-10.85-9.63-.12-3.32-.04-6.65-.04-9.98,0-3.17,0-6.34,0-9.77,3.62,0,6.72,0,9.82,0q7.35,0,7.17-7.28c-.09-3.66-.68-4.32-4.33-4.38-4.06-.07-8.12-.02-12.66-.02,0-5.72-.04-10.85.02-15.99.03-2.53-1.03-3.81-3.63-3.77Z"/><path class="cls-3" d="m733.68,266.23c-2.57.1-5.15,0-7.73.02-4.73.02-5,.28-5.01,4.88-.02,8.04,0,16.09,0,24.13h.04c0,7.62,0,15.23,0,22.85,0,.86.05,1.72.11,2.57.64,10.24,6.42,16.61,16.57,17.61,4.55.45,9.19.12,13.78-.06,6.46-.25,7.17-1.11,6.96-7.43-.01-.43.13-1.01-.09-1.26-.89-.98-1.81-2.49-2.89-2.64-2.3-.32-4.7.04-7.05.21-5.84.42-9.6-2.03-10.14-7.78-.62-6.59-.42-13.26-.4-19.9,0-.58,1.3-1.59,2.05-1.65,2.78-.2,5.58-.09,8.37-.09,6.72,0,6.74-.03,6.69-6.88,0-.21-.01-.43,0-.64.19-2.85-1.19-4.16-4-4.15-3.43.01-6.87-.1-10.3,0-2.19.07-3.06-.69-2.99-2.96.14-4.29-.06-8.58.07-12.87.09-2.94-1.2-4.08-4.05-3.97Z"/><path class="cls-3" d="m230.88,266.23c-2.68.09-5.36,0-8.04.02-4.64.02-5,.38-5.01,4.92,0,10.18,0,20.36,0,30.55,0,10.4,0,20.79,0,31.19,0,4.25.51,4.73,4.86,4.74,2.47,0,4.93.01,7.4,0,4.1-.02,4.78-.69,4.78-4.92.01-13.18,0-26.37,0-39.55,0-7.61-.03-15.22.01-22.83.02-2.76-1.07-4.22-4.01-4.11Z"/><path class="cls-3" d="m534.63,282.14c-.2-.05-.43-.03-.64-.03-6.3.16-12.38,1.16-17.77,4.74-1.12.75-2.29,1.42-3.73,2.31-.18-.92-.4-1.42-.36-1.9.27-3.36-1.53-4.31-4.55-4.14-2.46.14-4.94.02-7.4.03-4.35.01-4.87.48-4.89,4.75-.03,8.69-.01,17.37-.01,26.06,0,6.33-.02,12.66.01,18.98.02,4.19.53,4.68,4.58,4.7,2.58.01,5.15.01,7.73,0,4.05-.02,4.49-.43,4.49-4.41.02-9.22-.02-18.45.04-27.67,0-1.22.11-2.76.82-3.61,3.41-4.08,7.52-7.01,13.2-6.83,2.79.09,5.58.23,8.37.19,3.06-.04,3.46-2.36,3.08-4.55-.52-2.99,2.2-7.22-2.96-8.62Z"/><path class="cls-2" d="m1118.06.29c-69.16,0-138.32,0-207.48,0h-4.44c.46,1.3.8,2.28,1.16,3.27,2.96,8.04,6.13,16.01,8.85,24.13,8.89,26.5,18.1,52.88,21.43,80.9,1.04,8.71-.33,15.64-7.44,21.07-2.13,1.62-4.07,3.49-6.04,5.31-1.97,1.82-3.99,3.61-5.76,5.61-6.37,7.2-6.97,12-2.49,20.45,1.5,2.83,3.2,5.59,5.08,8.2,3.26,4.53,6.62,8.98,10.12,13.33,13.58,16.89,27.35,33.64,40.8,50.63,6.09,7.69,5.07,15.05-2.79,20.93-4.26,3.19-9.11,5.61-13.77,8.24-5.6,3.16-11.53,5.79-16.87,9.32-8.4,5.55-9.83,12.86-4.86,21.66,1.21,2.14,2.65,4.16,3.95,6.25,4.09,6.55,3.26,11.12-2.93,15.84-1.45,1.1-3,2.07-4.49,3.12-5.1,3.58-4.91,5.95.71,8.89.38.2.76.41,1.16.52,7.82,2.23,6.1,8.57,2.16,12.58-2.92,2.98-5.93,5.95-8.33,9.33-4.15,5.83-5.27,12.45-2.88,19.27,1.48,4.22,3.55,8.24,5.42,12.33,2.13,4.67,4.9,9.14,6.39,14.01,4.11,13.44,1.96,25.52-9.48,34.81-3.57,2.9-7.35,5.61-11.29,7.96-12.05,7.17-25.12,12.01-38.48,16.06-7.06,2.14-14.21,3.98-21.33,5.95v12.51h4.27c86.56,0,173.11,0,259.67,0,1.5,0,3,.1,4.5.15V.21c-1.5.03-3,.08-4.51.08Zm-43.92,246.17c-4.86,4.01-5.2,7.09-1.25,12.02.13.17.27.34.4.5,4.4,5.15,4.3,7.32-1.01,11.94-2.91,2.53-6.17,4.64-9.14,7.1-3.55,2.94-3.27,4.44.78,6.57,1.19.63,2.43,1.52,3.13,2.62.47.74.44,2.62-.1,3.03-5.72,4.32-5.3,10.07-3.98,16.04,1.19,5.42,2.75,10.78,3.66,16.24,1.25,7.51.84,14.43-4.16,21.23-16.91,22.95-37.23,41.99-61.69,56.64-.53.32-1.09.58-1.51.8,1.59-3.75,3.7-7.39,4.67-11.31,2.21-8.96.4-17.85-1.49-26.66-1.45-6.78-2.97-13.54-4.3-20.34-1.37-7.03.23-13.6,3.52-19.82,2.7-5.1,1.76-7.36-3.74-8.76-2.15-.55-4.56-1.32-4.51-3.82.03-1.77,1.4-3.53,2.28-5.25.22-.43.82-.67,1.25-.99,8.13-6.06,9.02-9.13,6.08-18.98-1.03-3.45-2.11-7.09-2.02-10.61.12-4.92,2.86-8.82,6.94-11.75,5.57-4,11.06-8.12,16.53-12.25,1.1-.83,2.03-1.91,2.95-2.96,5.17-5.82,5.92-12.17,1.3-18.43-6.11-8.27-12.76-16.15-19.17-24.2-8.9-11.17-17.5-22.56-22.76-36.01-2.8-7.16-4.38-14.52-2.16-22.25,1.31-4.55,3.78-8.1,7.89-10.5,1.02-.59,1.99-1.27,3.02-1.85,8.74-4.95,9.97-9.63,8.76-20.7-1.39-12.77-6.88-24.43-10.88-36.49-2.47-7.46-5.11-14.87-7.88-22.94,4.13,2.21,7.92,4.13,11.59,6.23,26.7,15.24,48.99,35.35,66.41,60.7,4.63,6.74,5.92,14.78,7.42,22.66,1.16,6.07.63,11.95-2.05,17.54-.51,1.06-1.68,2.59-2.47,2.55-1.08-.06-2.1-1.41-3.12-2.22-1.02-.81-2.02-1.64-3.02-2.46-.83,1.03-1.96,1.93-2.43,3.1-4.83,12.06-3.14,23.68,2.6,34.98,5.62,11.06,13.92,20.04,22.55,28.74,3.69,3.72,4.2,8.29.59,12.17-2.82,3.03-6.27,5.49-9.49,8.15Z"/><path class="cls-2" d="m14.65,229.4c9.88.1,19.76.11,29.64,0,6.04-.07,10.57-3.03,12.88-8.54,1.11-2.66,1.42-5.82,1.43-8.76.08-49.48.06-98.95.06-148.43v-3.42c.29,0,.58-.02.86-.03.35.88.72,1.74,1.04,2.63,11.21,31.25,22.41,62.51,33.61,93.76,6.87,19.16,13.83,38.28,20.57,57.48,2.9,8.27,11.75,16.03,21.85,15.4,5.99-.37,12.02-.07,18.04-.07,11.73,0,19.11-5.19,23.08-16.27,18.02-50.2,36.03-100.4,54.05-150.6.3-.83.71-1.63,1.06-2.44.18.04.37.09.55.13,0,1.27,0,2.54,0,3.8,0,47.12,0,94.23,0,141.35,0,2.9-.04,5.8.01,8.69.18,9.12,6.42,15.3,15.5,15.33,8.81.03,17.61.01,26.42,0,10.7,0,16.52-5.78,16.52-16.47.01-65.04.01-130.08,0-195.12,0-10.6-5.73-16.35-16.26-16.36-20.08-.02-40.17,0-60.25,0-11.62,0-18.69,4.99-22.48,15.96-12.74,36.84-25.45,73.7-38.17,110.54-2.72,7.87-5.46,15.73-8.53,24.57-.66-1.73-.99-2.51-1.27-3.31-6.68-19.33-13.35-38.67-20.04-58-8.57-24.8-17.14-49.6-25.73-74.4-3.19-9.22-10.52-15.27-19.02-15.31-21.8-.11-43.6-.08-65.4-.01-6.53.02-11.89,4.07-13.59,10.3-.63,2.33-.61,4.88-.61,7.33-.03,64.18-.02,128.36-.02,192.54,0,1.39,0,2.79.09,4.18.46,7.59,6.48,13.45,14.1,13.53Z"/><path class="cls-2" d="m790.89,115.8c-16.32-9.47-34.24-14.64-52.46-18.81-18.9-4.32-37.93-8.09-56.84-12.38-8.99-2.04-17.82-4.7-25.69-9.84-11.7-7.64-7.47-22.35,2.03-26.31,3.8-1.58,7.98-3.04,12.02-3.13,18.99-.45,38-.66,57-.45,15.09.17,27.5,5.07,34.49,20.07,3.67,7.87,11,11.38,19.89,11.2,5.8-.12,11.6.01,17.4-.03,10-.07,16.84-6.79,16.96-16.74.17-14.17-6.08-25.5-16.32-34.69-17.76-15.95-39.2-23.26-62.64-24.2-19.73-.79-39.52-.47-59.27-.05-16.56.35-32.89,2.67-48.63,8.29-34.6,12.35-43.78,41.29-38.28,70.22,2.92,15.38,13.24,25.88,26.12,33.99,15.17,9.55,31.98,15.04,49.24,19.13,20.43,4.84,41.03,8.99,61.49,13.68,9.3,2.13,18.54,4.67,26.68,9.95,5.09,3.3,8.4,7.65,7.63,14.15-.77,6.47-4.29,11.04-10.3,13.22-3.88,1.41-8.09,2.59-12.16,2.64-21.47.3-42.95.37-64.42.14-4.95-.05-10.01-1.17-14.81-2.53-7.56-2.15-13.19-6.91-16.66-14.12-4.73-9.85-12.27-15.1-23.59-14.42-5.24.32-10.52.02-15.78.06-10.02.08-16.77,6.78-16.86,16.78-.13,14.31,6.25,25.67,16.62,34.88,18.03,16.01,39.75,22.86,63.39,24.09,10.82.56,21.69.1,32.53.1,0,.13,0,.25,0,.38,13.84-.33,27.7-.38,41.52-1.08,14.29-.72,28.35-3.13,41.79-8.29,32.35-12.4,47.61-46.61,34.65-77.7-5.33-12.78-15.12-21.42-26.77-28.19Z"/><path class="cls-2" d="m337.87,213.06c.02,10.29,6.17,16.35,16.48,16.36,9.13,0,18.26.01,27.39,0,9.9-.02,15.84-5.87,15.88-15.77.05-10.41.13-20.83-.06-31.23-.05-3.11.86-3.96,3.96-3.94,25.88.11,51.77.12,77.65,0,11.41-.06,22.69-1.52,33.71-4.55,27.64-7.6,46.41-24.5,53.72-52.63,5.55-21.36,5.46-42.95-.44-64.24-6.35-22.9-20.89-38.77-43-47.57-12.79-5.1-26.21-7.52-39.9-7.79-19.22-.37-38.45-.2-57.67-.21-24.17-.02-48.33-.03-72.5.01-7.22.01-12.58,3.73-14.39,10.09-.63,2.23-.82,4.65-.82,6.99-.05,32.2-.03,64.4-.03,96.6,0,11.27,0,22.54,0,33.81,0,21.36-.03,42.72.01,64.08Zm63.79-167.08c21.78.28,43.58.08,65.35.64,6.64.17,13.42,1.67,19.82,3.61,11.95,3.62,19.26,12.11,22.12,24.18,2.46,10.37,2.47,20.87-.02,31.23-3.59,14.92-13.75,23.17-28.34,25.9-7.64,1.43-15.53,2.02-23.32,2.15-18.78.3-37.56.1-56.35.09-.94,0-1.88-.11-3.28-.19v-3.94c0-26.49.05-52.99-.07-79.48-.01-3.2.76-4.23,4.09-4.19Z"/><path class="cls-2" d="m.83,473.44h820.46v-6.59H.83v6.59Z"/><path class="cls-2" d="m.86,374.86h820.49v-6.64H.86v6.64Z"/><path class="cls-2" d="m357.09,435.62c5.14,2.17,9.86,1.25,14.04-2.46.29-.25.71-.36,1.13-.56.19,1.09.36,1.99.55,3.09,1.52-.07,2.84-.14,4.23-.2v-41.58h-4.47v14.73c-1.05-.78-1.46-1.07-1.85-1.39-7.43-5.98-17.72-3.19-20.51,5.91-1.04,3.37-1.08,7.19-.87,10.77.31,5.22,2.66,9.53,7.75,11.68Zm-1.32-22.68c1.63-3.32,4.68-4.63,8.3-4.39,3.62.24,6.4,1.96,7.58,5.49.67,2,.83,4.17,1.28,6.57-.49,2.09-.8,4.45-1.62,6.61-1.31,3.46-4.13,5.13-7.78,5.18-3.63.05-6.53-1.48-8.04-4.85-2.16-4.86-2.04-9.85.29-14.6Z"/><path class="cls-2" d="m104.43,417.56c-3.58.55-7.26.91-10.64,2.08-3.94,1.37-5.3,4.66-4.85,9.46.35,3.67,2.54,6.11,6.35,7.15,5.44,1.49,9.84-.64,13.86-4.03,2.09,3.65,4.15,4.87,7.13,3.82.81-.29,1.22-1.72,2.47-3.61-4.52.32-4.4-1.97-4.43-4.22-.07-5.57-.11-11.14-.32-16.71-.11-2.94-1.77-5.06-4.5-6.11-4.7-1.81-9.47-1.84-14.08.21-3.59,1.6-5.28,4.83-4.71,8.49h3.73c2.09-5.18,6.94-7.21,11.98-4.86,1.11.52,2.2,1.78,2.61,2.94,1.13,3.27-.3,4.71-4.59,5.37Zm-5.54,14.86c-2.59-.23-4.54-1.31-4.94-4.15-.42-2.92.85-4.97,3.9-5.69,3.62-.84,7.31-1.36,10.97-2.01,1.73,7.43-2.56,12.5-9.93,11.84Z"/><path class="cls-2" d="m733.91,417.47c-3.26.6-6.63.75-9.81,1.62-3.94,1.08-5.92,3.93-6.14,7.75-.38,6.75,4.85,11.21,11.86,9.64,3.02-.68,5.81-2.43,9.01-3.83.59,3.32,3.12,3.87,6.02,3.48.69-.09,1.67-.91,1.79-1.53.12-.65-.59-1.49-1.01-2.2-.68-1.13-1.99-2.2-2.04-3.34-.23-5.14-.06-10.3-.13-15.44-.05-3.8-1.29-7.01-5.22-8.38-4.29-1.5-8.63-1.59-12.9.08-3.96,1.55-5.69,4.23-5.76,8.76h4.04c1.77-4.78,5.3-6.56,10.44-5.35,3.2.75,4.59,2.49,4.46,5.34-.14,3.1-2.58,3.03-4.61,3.41Zm-5.73,14.97c-2.75-.2-4.7-1.39-5.15-4.3-.42-2.71,1.04-4.88,4.06-5.57,3.61-.82,7.29-1.34,10.94-2,1.61,7.47-2.52,12.39-9.86,11.86Z"/><path class="cls-2" d="m595.41,417.15c-2.69.65-5.52.69-8.26,1.18-3.71.67-7.07,2.01-8.39,6.03-2.45,7.47,3.4,13.88,11.38,12.11,3.11-.69,5.97-2.54,8.94-3.85,1.39,3.62,3.1,4.35,8.22,2.9-.46-1.07-.68-2.78-1.37-2.99-2.28-.71-2.23-2.32-2.23-4.06,0-5.04.05-10.07-.02-15.11-.08-5.77-3.13-8.58-9.76-9.15-7.41-.64-12.92,2.32-13.91,7.48-.14.71-.1,1.46-.15,2.36h4.16c1.76-5.3,8.3-7.64,12.7-4.28,1.22.93,1.8,3.28,1.8,4.98,0,.83-1.89,2.1-3.11,2.4Zm-6.7,15.29c-3.21-.16-5.13-1.67-5.34-4.42-.22-2.98,1.16-4.92,4.15-5.51,3.55-.69,7.11-1.29,10.9-1.97,1.09,7.88-2.54,12.26-9.72,11.9Z"/><path class="cls-2" d="m275.3,417.53c-3.68.6-7.47.96-10.95,2.16-3.81,1.31-5.14,4.58-4.73,9.2.34,3.82,2.38,6.24,6.14,7.31,5.54,1.58,10.05-.53,14.12-4.09,2.04,4.17,2.95,4.6,8.68,3.66-.39-1.26-.54-3.07-1.03-3.17-3.16-.63-2.61-3-2.65-5.04-.08-5.03-.04-10.07-.09-15.11-.03-3.17-1.37-5.7-4.33-6.92-4.87-1.99-9.84-2.06-14.64.25-3.5,1.68-5.01,4.76-4.35,8.3h3.71c1.97-5.31,7.89-7.46,12.55-4.52.95.6,1.78,1.9,2.03,3.02.73,3.29-.34,4.28-4.45,4.95Zm-5.97,14.87c-2.57-.3-4.47-1.45-4.7-4.35-.23-2.86.91-4.85,3.78-5.45,3.65-.77,7.34-1.34,11.17-2.03.92,8.22-3.05,12.69-10.26,11.84Z"/><path class="cls-2" d="m72.97,421.88c-.48-3.25-.61-6.13-1.37-8.84-1.56-5.49-5.79-8.52-11.7-8.87-5.86-.35-10.57,2.21-12.85,7.27-2.59,5.75-2.73,11.71-.37,17.51,3.57,8.77,16.4,10.73,22.51,3.47,1.4-1.66,2.12-3.9,3.15-5.87-.31-.34-.63-.69-.94-1.03-1.48.62-3.6.82-4.32,1.93-2.74,4.23-5.97,5.82-10.51,4.47-4.12-1.22-6.29-4.74-5.96-10.04h22.36Zm-22.44-4.36c.39-6.02,3.52-9.18,8.75-9.05,5.05.12,7.77,3.09,8.02,9.05h-16.78Z"/><path class="cls-2" d="m820.91,421.88c0-1.69.06-3.05,0-4.4-.37-7.71-4.9-12.64-12.16-13.28-7.29-.64-12.83,3.42-14.51,10.76-.43,1.86-.64,3.82-.65,5.73-.1,10.33,5.73,16.58,14.89,16.06,6.56-.37,11.61-4.91,11.6-11.48-1.86.95-3.93,1.32-4.7,2.52-2.46,3.87-5.93,5.48-10.37,4.14-4.19-1.27-6.36-4.88-5.79-10.04h21.71Zm-14.1-13.4c5.47-.36,8.93,3.04,8.91,9.11h-16.43c-.62-4.98,2.58-8.79,7.52-9.11Z"/><path class="cls-2" d="m1.5,393.88v41.64h4.76c0-6.64-.16-12.84.05-19.04.16-4.78,4.15-7.92,9.29-7.79,4.3.11,6.07,2.14,6.2,7.61.13,5.36.03,10.72.07,16.08,0,1.07.24,2.15.37,3.33,1.71-.08,2.95-.14,4.2-.19,0-8.11.23-15.91-.09-23.69-.17-4.08-3.01-6.47-7.11-7.08-4.75-.71-9.19-.24-13.07,4.59v-15.47H1.5Z"/><path class="cls-2" d="m188.36,393.85v41.55q4.58.59,4.59-3.73c0-4.51-.05-9.01.02-13.52.1-5.98,3.36-9.34,9.04-9.45,4.78-.09,6.49,2.14,6.59,8.87.08,5.26.07,10.52,0,15.77-.02,1.85.74,2.43,2.5,2.39,1.6-.03,2.36-.55,2.34-2.24-.08-6.97.03-13.95-.21-20.91-.15-4.52-2.94-7.2-7.43-7.85-4.64-.67-8.93-.04-12.87,4.45v-15.32h-4.57Z"/><path class="cls-2" d="m474.98,436.14c11.11,2.76,19.09-3.75,19.12-15.61.02-8.33-3.65-14.08-10.06-15.75-11.88-3.11-20.76,5.22-19.17,17.99.93,7.5,4.27,11.92,10.11,13.37Zm1.76-27.21c1.89-.42,4.1-.38,5.94.16,5.53,1.64,8.01,9.75,5.45,17.09-1.78,5.1-6.61,7.43-11.86,5.72-4.21-1.38-6.5-5.37-6.53-11.38-.04-6.31,2.36-10.55,7-11.59Z"/><path class="cls-2" d="m439.72,431.62c-4.81,1.76-9.64,1.37-12.27-5.43h-3.76c-.43,4.57,1.75,8.08,5.98,9.57,4.09,1.45,8.23,1.35,12.29-.15,4.14-1.53,6.36-4.88,6.24-9.16-.12-4.01-1.91-6.21-6.55-7.63-3.17-.97-6.52-1.45-9.58-2.65-1.28-.5-2.83-2.33-2.81-3.54.02-1.25,1.53-3.04,2.83-3.61,4.5-2.01,8.49-.23,10.86,4.46h4.15c.19-3.98-1.74-6.38-4.88-7.82-4.07-1.88-8.32-1.96-12.53-.42-3.8,1.39-5.67,4.18-5.6,8.1.06,3.77,1.61,5.95,5.63,7.28,3.25,1.07,6.72,1.55,9.87,2.84,1.51.62,3.53,2.56,3.46,3.79-.1,1.57-1.79,3.83-3.31,4.39Z"/><path class="cls-2" d="m307.77,435.71c1.7.06,2.24-.69,2.22-2.31-.06-4.61-.07-9.22.02-13.82.03-1.7.17-3.45.64-5.08,1.17-4.07,5.38-6.38,9.96-5.68,3.66.56,4.87,2.24,4.98,7.3.1,4.71.05,9.43.06,14.15,0,1.69,0,3.37,0,5.24h4.67c0-8.29.21-16.4-.1-24.5-.12-3.27-3.3-5.68-6.89-6.24-4.99-.77-9.61-.2-13.27,4.76-.2-1.88-.3-2.9-.42-4.07h-4.4c0,9.64.02,18.94-.01,28.24,0,1.86,1.13,1.96,2.55,2Z"/><path class="cls-2" d="m689.84,408.54c2.92.09,5.86.92,6.82,3.91,1.07,3.31,3.07,2.82,5.43,2.34-.23-4.66-2.42-7.78-6.55-9.48-7.5-3.08-15.48-.17-18.49,6.75-3.83,8.82-.95,20.21,5.98,23.37,1.25.57,2.64.96,4,1.17,8.22,1.28,15.07-3.91,15.03-11.41-2.56-.72-4.33-.45-5.31,2.63-1.04,3.25-4.04,4.32-7.2,4.46-3.11.14-5.8-1.05-7.21-3.93-2.55-5.21-2.65-10.57-.01-15.78,1.51-2.98,4.28-4.14,7.51-4.04Z"/><path class="cls-2" d="m525.34,408.54c2.92.12,5.83.98,6.79,3.97,1.01,3.15,2.95,2.72,5.43,2.34-.1-3.58-1.47-6.15-3.99-8.07-7.49-5.72-19.39-2.13-21.57,6.99-1.03,4.31-.82,9.18-.01,13.59.96,5.27,4.87,8.37,10.31,9.25,8.34,1.35,15.5-4.06,15.03-11.48-2.35-.5-4.14-.52-5.06,2.52-.98,3.23-3.89,4.44-7.07,4.64-3.11.19-5.83-.9-7.31-3.74-2.73-5.28-2.75-10.74-.08-16.04,1.49-2.97,4.31-4.1,7.54-3.96Z"/><path class="cls-2" d="m156.16,405.53v3.36c1.44.11,2.69.21,4.35.35,0,6.96-.03,13.59,0,20.21.03,5.3,1.69,6.84,7.04,6.67,3.4-.11,3.72-.58,2.48-3.72-1.7-.87-4.29-1.99-4.37-3.26-.42-6.58-.19-13.2-.19-19.92,1.89-.13,3.46-.24,5.19-.36v-3.33c-1.73-.17-3.29-.32-5.22-.5v-8.33h-4.28c-2.28,2.98,2.78,9.31-5,8.82Z"/><path class="cls-2" d="m624.16,393.9v41.62h4.47v-41.62h-4.47Z"/><path class="cls-2" d="m134.92,393.93v41.61h4.46v-41.61h-4.46Z"/><path class="cls-2" d="m778.16,409.35v-4.43c-4.28-.93-6.99,1.18-9.35,4.83-.3-1.8-.51-3.01-.73-4.33h-4.13v30.07h4.66c0-4.99,0-9.78,0-14.57,0-8.4,1.34-10.04,9.55-11.57Z"/><path class="cls-2" d="m555.26,409.09c-.01,7.6-.01,15.2,0,22.8,0,4.04.07,4.08,4.49,3.48v-29.82c-4.46-.49-4.48-.49-4.49,3.54Z"/><path class="cls-2" d="m559.81,393.46c-1.66.38-3.52.26-4.19,1.1-.67.83-.65,3.04.02,3.87.67.83,2.53.71,4.17,1.08v-6.05Z"/></g></svg>