<svg width="189" height="61" viewBox="0 0 189 61" fill="none" xmlns="http://www.w3.org/2000/svg">
<path d="M3.35468 52.2553H9.52001C9.52001 51.223 9.52001 50.238 9.52001 49.2531C9.52001 48.9414 9.5001 48.6272 9.53992 48.3205C9.61708 47.727 9.92821 47.4427 10.665 47.4777C11.4117 47.5126 12.3401 47.0912 12.7956 48.106C12.8802 48.293 12.8478 48.5349 12.8478 48.7519C12.8503 52.1755 12.8553 55.6017 12.8478 59.0253C12.8478 60.0652 12.6363 60.2597 11.5834 60.2846C9.55486 60.332 9.52001 60.2946 9.52001 58.2274C9.52001 57.1477 9.52001 56.068 9.52001 54.9334H3.35468C3.35468 55.5593 3.35468 56.1403 3.35468 56.7213C3.35468 57.5616 3.36961 58.4019 3.34721 59.2423C3.3273 60.0053 3.09333 60.2347 2.33418 60.2771C1.90109 60.2995 1.46302 60.302 1.02992 60.2771C0.29566 60.2347 0.0343116 59.9754 0.0143994 59.2298C-0.010491 58.3271 0.00444323 57.4245 0.00444323 56.5218C0.00444323 53.9684 -0.000534833 51.4175 0.00444323 48.8641C0.00693226 47.7345 0.255836 47.4876 1.35848 47.4577C3.2377 47.4078 3.35219 47.52 3.35219 49.4201C3.35219 50.3452 3.35219 51.2704 3.35219 52.2578L3.35468 52.2553Z" fill="white"/>
<path d="M142.84 50.6838C142.84 49.9157 142.83 49.2051 142.842 48.4969C142.857 47.6217 143.002 47.4845 143.885 47.4546C145.256 47.4064 145.941 48.0713 145.941 49.4494C145.941 52.6587 145.944 55.8679 145.941 59.0771C145.941 60.2067 145.859 60.2964 144.709 60.274C144.097 60.264 143.35 60.5383 143.069 59.6606C142.372 59.8975 141.72 60.1892 141.038 60.3413C138.2 60.9797 135.811 59.2766 135.577 56.3741C135.495 55.3717 135.582 54.3069 135.838 53.3369C136.309 51.5565 137.75 50.5042 139.604 50.377C140.129 50.3421 140.662 50.3471 141.185 50.397C141.702 50.4444 142.213 50.5715 142.842 50.6863L142.84 50.6838ZM142.832 52.7833C142.083 52.6686 141.448 52.5041 140.809 52.4866C139.831 52.4592 139.181 52.8856 138.922 53.706C138.559 54.863 138.521 56.0574 138.972 57.1845C139.136 57.5934 139.569 58.0248 139.98 58.1769C140.921 58.526 141.812 58.1769 142.603 57.6184C142.728 57.5286 142.82 57.3042 142.82 57.1396C142.837 55.7432 142.83 54.3443 142.83 52.7808L142.832 52.7833Z" fill="white"/>
<path d="M55.2874 51.5716C56.4797 50.6665 57.5699 50.2475 58.8492 50.3473C60.828 50.4994 62.197 51.5891 62.3563 53.5565C62.5206 55.5688 62.4285 57.601 62.4409 59.6258C62.4434 60.0373 62.2194 60.2542 61.8087 60.2741C61.7465 60.2766 61.6842 60.2816 61.622 60.2816C59.0832 60.2841 59.4267 60.4886 59.4068 58.2095C59.3968 57.1497 59.4167 56.09 59.3993 55.0327C59.3918 54.5988 59.3645 54.1574 59.2724 53.7335C59.1006 52.9531 58.5182 52.4768 57.7391 52.4843C56.8107 52.4917 56.069 52.9605 55.4766 53.6263C55.3049 53.8208 55.2999 54.2073 55.2974 54.5065C55.28 56.0326 55.2974 57.5587 55.2874 59.0872C55.28 60.1919 55.1928 60.2766 54.135 60.2866C51.9646 60.3041 52.1961 60.3514 52.1936 58.394C52.1911 55.1549 52.1911 51.9132 52.1936 48.6741C52.1936 47.567 52.3006 47.4697 53.4356 47.4572C54.6718 47.4439 55.2899 48.054 55.2899 49.2875C55.2899 49.9683 55.2899 50.649 55.2899 51.5766L55.2874 51.5716Z" fill="white"/>
<path d="M82.543 54.1949C82.5878 53.003 82.2742 52.5641 81.3383 52.3821C80.4995 52.2175 79.713 52.3796 79.0783 52.9606C78.3216 53.6513 77.4455 53.392 76.6017 53.3321C76.4623 53.3222 76.2159 52.9506 76.2482 52.7885C76.3304 52.3472 76.4723 51.8884 76.7087 51.5118C76.8755 51.245 77.209 51.0281 77.5152 50.9134C79.4964 50.1678 81.515 50.073 83.5212 50.7812C84.9325 51.2774 85.6568 52.3821 85.7066 53.8458C85.7688 55.711 85.7215 57.5812 85.7339 59.4488C85.7389 60.0398 85.4701 60.3091 84.8852 60.2867C84.6064 60.2767 84.3252 60.2717 84.0464 60.2892C83.4913 60.3241 82.9885 60.2692 82.8093 59.5935C81.072 60.5859 79.3297 60.748 77.5326 60.1096C75.6758 59.4513 74.9166 57.5138 75.8575 55.8855C76.2532 55.1998 76.8605 54.7535 77.5998 54.5739C78.4087 54.3794 79.245 54.2722 80.0739 54.2099C80.8704 54.15 81.6743 54.1974 82.5405 54.1974L82.543 54.1949ZM82.5181 56.2646C81.5449 56.2646 80.619 56.2172 79.7005 56.2795C78.9638 56.3294 78.5257 56.8256 78.5581 57.3917C78.5929 57.9527 79.0758 58.409 79.8001 58.4115C80.38 58.4115 80.9799 58.3367 81.5349 58.1721C82.66 57.8405 82.7471 57.631 82.5156 56.2646H82.5181Z" fill="white"/>
<path d="M33.5886 59.5764C31.8065 60.5912 30.0592 60.7533 28.2695 60.0925C27.1097 59.6636 26.3331 58.8707 26.2634 57.5516C26.1887 56.1402 26.8657 55.0431 28.2223 54.6241C29.0411 54.3723 29.9198 54.28 30.7785 54.2077C31.6024 54.1404 32.4387 54.1928 33.2526 54.1928C33.387 53.123 33.1008 52.6393 32.2545 52.4173C31.4256 52.2004 30.5819 52.2777 29.9745 52.8637C29.2228 53.5893 28.3666 53.3749 27.5203 53.3799C27.142 53.3799 26.9877 53.113 26.9802 52.754C26.9678 51.9486 27.3735 51.3725 28.0455 51.0259C28.5359 50.7741 29.0835 50.5372 29.6211 50.4948C30.7909 50.4025 31.9857 50.3203 33.1456 50.4499C35.2712 50.6868 36.4684 52.1007 36.5057 54.2376C36.5331 55.9183 36.5207 57.599 36.5082 59.2821C36.5033 60.1249 36.3614 60.2546 35.535 60.282C35.2563 60.292 34.975 60.2696 34.6962 60.287C34.191 60.3194 33.7678 60.2172 33.5861 59.5788L33.5886 59.5764ZM33.2924 56.2898C32.257 56.2898 31.2713 56.235 30.2981 56.3098C29.6584 56.3597 29.3199 56.8235 29.3249 57.3571C29.3299 57.8832 29.6933 58.342 30.3255 58.377C30.9602 58.4119 31.6248 58.3545 32.2371 58.1924C33.4144 57.8782 33.5189 57.6339 33.2924 56.2923V56.2898Z" fill="white"/>
<path d="M17.931 56.4044C18.0355 57.7185 18.5433 58.302 19.6683 58.4117C20.4872 58.4915 21.2837 58.4317 21.9334 57.8108C22.6353 57.14 23.5064 57.337 24.3228 57.4392C24.4971 57.4617 24.7908 57.9404 24.736 58.125C24.5991 58.6112 24.3751 59.1199 24.0441 59.4914C23.7752 59.7932 23.3197 59.9852 22.9115 60.0949C21.3335 60.5288 19.7331 60.6659 18.1226 60.257C16.6342 59.8779 15.5813 59.0077 15.0562 57.529C14.6032 56.2523 14.5758 54.9557 14.9292 53.6665C15.3449 52.1479 16.3081 51.0807 17.8265 50.6343C19.3497 50.1855 20.8905 50.188 22.3988 50.7665C24.5668 51.5993 25.2463 53.7662 25.0969 55.7187C25.0521 56.3122 24.6091 56.357 24.1436 56.357C22.4038 56.357 20.6615 56.357 18.9216 56.3595C18.5906 56.3595 18.2595 56.3895 17.9285 56.4044H17.931ZM17.931 54.4669C19.3 54.4869 20.6042 54.5018 21.9085 54.4669C21.8512 53.0107 21.097 52.2826 19.8575 52.3225C18.6478 52.3624 17.936 53.1004 17.931 54.4669Z" fill="white"/>
<path d="M99.27 56.3595C99.3323 57.3245 99.6235 57.9703 100.378 58.2397C101.319 58.5763 102.337 58.6486 103.118 57.9454C103.847 57.2896 104.644 57.3544 105.475 57.3719C105.993 57.3819 106.17 57.7035 106.13 58.1848C106.048 59.2022 105.391 59.7507 104.514 60.0275C103.14 60.4614 101.717 60.6434 100.283 60.3991C96.4823 59.7532 94.735 55.4593 96.9552 52.2576C97.5277 51.4322 98.3118 50.8812 99.2651 50.6094C100.671 50.2079 102.1 50.1904 103.489 50.6492C105.577 51.34 106.777 53.4196 106.493 55.6738C106.419 56.2672 106.06 56.357 105.582 56.3545C103.842 56.3545 102.103 56.3545 100.363 56.3545C100.029 56.3545 99.6957 56.3545 99.27 56.3545V56.3595ZM103.23 54.4095C103.345 53.1553 102.658 52.3873 101.411 52.3249C100.139 52.2626 99.3397 53.0256 99.3049 54.4095H103.228H103.23Z" fill="white"/>
<path d="M118.083 57.7461C118.578 57.7461 118.914 57.7461 119.25 57.7461C121.299 57.7461 123.345 57.7361 125.393 57.751C126.553 57.761 127.148 58.8083 126.588 59.8232C126.337 60.2795 125.894 60.2845 125.45 60.2845C123.248 60.2845 121.045 60.2845 118.842 60.2845C117.881 60.2845 116.918 60.2945 115.957 60.2795C114.992 60.2646 114.725 60.0177 114.72 59.0651C114.708 55.6116 114.708 52.158 114.72 48.7044C114.725 47.7718 115.029 47.4875 115.957 47.4576C118.175 47.3828 118.105 47.6795 118.09 49.4724C118.071 51.8363 118.085 54.2027 118.085 56.5666V57.7461H118.083Z" fill="white"/>
<path d="M67.3003 55.4191C67.3003 55.6062 67.2878 55.7932 67.3003 55.9802C67.375 56.9228 67.6139 57.7756 68.6095 58.1571C69.6798 58.566 70.9293 58.2643 71.6735 57.4364C72.1763 56.8754 73.4905 56.5911 74.1551 56.8903C74.5483 57.0674 74.5832 57.4015 74.5259 57.7531C74.3791 58.6358 73.9286 59.3216 73.1221 59.7305C71.6586 60.4736 70.093 60.5933 68.495 60.4162C68.0644 60.3689 67.6388 60.2641 67.2206 60.1444C65.9089 59.7729 64.9631 58.945 64.5001 57.6683C63.9525 56.1572 63.96 54.6037 64.5126 53.0902C64.9681 51.8434 65.8915 51.003 67.1584 50.6539C69.0625 50.1278 70.9691 50.1577 72.811 50.9482C73.7319 51.3447 74.3069 52.0478 74.4015 53.0777C74.4612 53.7335 74.3019 53.9105 73.6374 53.9504C72.7537 54.0053 71.9971 53.938 71.33 53.1201C70.6729 52.3147 69.63 52.3296 68.6468 52.6288C67.7309 52.9056 67.4546 53.6462 67.3301 54.4865C67.2853 54.7933 67.2903 55.1074 67.2754 55.4166C67.2829 55.4166 67.2903 55.4166 67.2978 55.4166L67.3003 55.4191Z" fill="white"/>
<path d="M131.073 50.9911C131.772 50.9911 132.322 50.9861 132.875 50.9911C133.997 51.001 134.102 51.0983 134.094 52.1182C134.089 53.0857 133.99 53.1754 132.915 53.1879C132.417 53.1929 131.921 53.2004 131.424 53.2103C131.364 53.2103 131.307 53.2453 131.1 53.3126C131.08 54.5818 130.938 55.9084 131.19 57.22C131.336 57.983 131.899 58.3346 132.705 58.3321C133.109 58.3321 133.512 58.2822 133.915 58.2623C134.378 58.2399 134.684 58.4044 134.754 58.9206C134.856 59.6612 134.717 60.1524 134.221 60.2497C132.748 60.5389 131.257 60.701 129.818 60.0901C128.815 59.6637 128.327 58.8109 128.118 57.7835C128.039 57.3896 127.991 56.9806 127.989 56.5767C127.976 53.8661 127.971 51.1556 127.984 48.4427C127.989 47.6273 128.16 47.4727 128.992 47.4602C131.319 47.4278 131.063 47.3978 131.07 49.4176C131.07 49.8814 131.07 50.3427 131.07 50.9911H131.073Z" fill="white"/>
<path d="M47.0429 50.9903C47.8394 50.9903 48.4542 50.9804 49.0689 50.9903C49.9774 51.0103 50.1243 51.1749 50.1143 52.1174C50.1069 53.0001 49.9575 53.1622 49.0988 53.1797C48.4815 53.1921 47.8642 53.1797 47.13 53.1797C46.9931 54.606 46.9483 55.9625 47.2121 57.299C47.3366 57.9274 47.8344 58.2965 48.5089 58.3064C48.9744 58.3139 49.4398 58.2715 49.9028 58.2566C50.3607 58.2416 50.7266 58.3738 50.7067 58.9174C50.6893 59.4111 50.9407 60.0843 50.1965 60.2389C48.7578 60.5382 47.3042 60.6803 45.883 60.1168C44.977 59.7577 44.4369 59.0445 44.2029 58.1294C44.066 57.5933 44.0038 57.0248 43.9988 56.4687C43.9789 53.8529 43.9839 51.2372 43.9888 48.6239C43.9888 47.5567 44.0934 47.4619 45.1711 47.4495C47.2768 47.422 47.0329 47.4769 47.0429 49.3346C47.0429 49.8283 47.0429 50.3196 47.0429 50.9878V50.9903Z" fill="white"/>
<path d="M91.1516 51.5015C92.2418 50.7659 93.322 50.3345 94.5491 50.3469C95.363 50.3569 95.475 50.4467 95.5099 51.2371C95.5796 52.7308 95.4601 52.833 93.9667 52.7433C93.5386 52.7158 93.0881 52.7233 92.6774 52.828C91.5474 53.1123 91.0097 53.8654 91.0097 55.0548C91.0097 56.4886 91.0197 57.9199 91.0047 59.3537C90.9973 60.1541 90.8803 60.2539 90.0788 60.2813C89.7677 60.2913 89.4566 60.2863 89.1479 60.2813C88.0403 60.2738 87.9706 60.209 87.9631 59.1367C87.9582 58.4211 87.9631 57.7029 87.9631 56.9873C87.9631 55.2443 87.9607 53.4988 87.9631 51.7558C87.9656 50.5539 88.0055 50.5215 89.24 50.514C89.3321 50.514 89.4267 50.514 89.5188 50.514C90.2406 50.524 91.072 50.327 91.1516 51.5015Z" fill="white"/>
<path d="M41.759 53.8534C41.759 55.6562 41.7665 57.4616 41.7565 59.2644C41.7515 60.182 41.657 60.2768 40.7335 60.2793C38.466 60.2868 38.7224 60.4364 38.7174 58.2944C38.7099 55.0902 38.7124 51.886 38.7174 48.6842C38.7174 47.5472 38.8045 47.4674 39.9321 47.4524C41.1517 47.4375 41.7615 48.0467 41.7615 49.2802C41.7615 50.8038 41.7615 52.3273 41.7615 53.8534H41.759Z" fill="white"/>
<path d="M41.221 10.9296C41.1438 11.0792 41.0443 11.2238 40.9895 11.3834C37.8633 20.1458 34.7196 28.9057 31.6308 37.6805C30.8467 39.9073 29.3234 41.1765 26.9713 41.0019C26.0429 40.9346 25.107 40.9945 24.1761 40.9895C22.4363 40.9795 20.9553 39.9921 20.3679 38.3513C17.4682 30.2672 14.5908 22.1756 11.7011 14.0889C11.3427 13.084 10.9668 12.0866 10.6009 11.0842C10.5138 11.1016 10.4292 11.1166 10.3421 11.1341C10.3421 11.4906 10.3421 11.8472 10.3421 12.2013C10.3421 20.5847 10.3421 28.968 10.3421 37.3514C10.3421 40.1591 9.52317 40.9895 6.76035 40.9895C5.45609 40.9895 4.14935 40.9994 2.8451 40.987C1.10775 40.9695 0.0324932 39.9247 0.0300042 38.1992C0.0225371 26.5119 0.0200481 14.8245 0.0300042 3.13721C0.0300042 1.4765 1.03557 0.439175 2.70074 0.426707C6.46166 0.396784 10.2226 0.39429 13.981 0.426707C15.6985 0.441668 16.9256 1.46403 17.5329 3.22448C20.2185 11.0219 22.9042 18.8167 25.5924 26.6141C25.6421 26.7562 25.7069 26.8959 25.8537 27.2574C26.0503 26.7837 26.1872 26.4969 26.2918 26.1977C28.9426 18.52 31.5835 10.8398 34.2368 3.16464C34.8814 1.29696 36.116 0.419226 38.0973 0.414239C41.6391 0.404265 45.1835 0.401771 48.7254 0.414239C50.7415 0.42172 51.7471 1.44408 51.7471 3.48631C51.7521 14.9542 51.7521 26.4246 51.7471 37.8925C51.7471 39.9397 50.6818 40.9845 48.6358 40.9895C47.2071 40.992 45.7759 40.997 44.3472 40.9895C42.4555 40.9795 41.4052 39.9347 41.4052 38.0296C41.3977 29.3346 41.4027 20.6395 41.4027 11.9445C41.4027 11.6178 41.4027 11.2936 41.4027 10.967L41.2235 10.9296H41.221Z" fill="white"/>
<path d="M161.749 41.7322C162.202 41.3757 162.558 41.0989 162.914 40.8196C163.723 40.1837 163.845 39.5928 163.352 38.7051C162.013 36.3038 162.212 35.6579 164.666 34.3787C165.492 33.9473 166.346 33.5608 167.123 33.0522C168.464 32.1744 168.639 31.182 167.645 29.9103C165.654 27.3619 163.573 24.8833 161.595 22.3249C159.588 19.7291 159.626 19.1381 162.085 17.0136C163.242 16.0137 163.526 14.9314 163.307 13.4702C162.665 9.22119 161.189 5.2265 159.783 1.20439C159.681 0.91015 159.561 0.62339 159.464 0.32915C159.437 0.246863 159.452 0.149614 159.447 0H188.389V61H152.674C152.457 59.6086 152.485 59.6834 153.709 59.2395C155.977 58.4167 158.269 57.6212 160.442 56.5814C162.237 55.7211 163.544 54.2823 163.17 52.0531C163.013 51.1255 162.615 50.2079 162.175 49.365C161.179 47.455 160.661 46.1035 162.857 44.0587C163.631 43.3381 163.511 42.8643 162.593 42.3457C162.334 42.1985 162.11 41.9941 161.756 41.7298L161.749 41.7322ZM180.046 21.2227C180.233 20.7414 180.469 20.3699 180.519 19.9734C180.728 18.3052 180.424 16.6595 179.389 15.3778C177.908 13.55 176.307 11.7871 174.558 10.2236C173.146 8.96186 171.436 8.03675 169.861 6.96452C169.789 7.03932 169.716 7.11662 169.644 7.19143C170.082 8.47312 170.553 9.74733 170.951 11.0415C171.324 12.2583 171.685 13.4852 171.934 14.7295C172.168 15.9014 171.81 16.8714 170.637 17.4325C169.652 17.9038 169.253 18.7865 169.331 19.8188C169.388 20.5819 169.51 21.3997 169.848 22.0655C170.495 23.3347 171.26 24.5541 172.086 25.7161C172.967 26.9579 174.002 28.09 174.921 29.3043C175.77 30.4239 175.685 31.3117 174.655 32.2717C174.134 32.7554 173.537 33.1619 172.955 33.5758C171.508 34.6007 171.299 35.1044 171.782 36.81C172.073 37.8398 171.996 38.6726 171.013 39.3384C170.311 39.8122 170.391 40.2935 171.185 40.5977C171.777 40.8246 171.907 41.1837 171.643 41.6749C170.876 43.1137 171.115 44.5699 171.491 46.0411C171.961 47.8864 172.385 49.7316 171.436 51.7289C171.812 51.527 172.036 51.4297 172.238 51.2976C174.762 49.6543 176.892 47.5896 178.826 45.2806C180.031 43.8418 180.332 42.3856 179.762 40.6176C179.399 39.4831 178.943 38.2537 180.193 37.2663C179.789 36.9222 179.496 36.6728 179.098 36.3337C179.717 35.8051 180.287 35.3412 180.827 34.8475C181.231 34.481 181.42 34.1019 180.977 33.5658C180.218 32.6507 180.287 32.3515 181.238 31.5934C181.482 31.3989 181.738 31.2194 181.957 31C182.642 30.3217 182.639 29.7856 181.982 29.0799C181.557 28.6261 181.121 28.1797 180.72 27.706C179.66 26.4592 178.766 25.1127 178.53 23.447C178.386 22.4221 178.478 21.4197 179.17 20.4871C179.458 20.729 179.68 20.9135 180.048 21.2227H180.046Z" fill="white"/>
<path d="M125.617 0.214103C128.322 0.293897 131.568 -0.0626822 134.742 0.842481C137.91 1.74764 140.792 3.11661 142.928 5.73485C144.108 7.18111 144.743 8.83933 144.68 10.7369C144.623 12.4176 143.662 13.5222 141.995 13.627C140.695 13.7093 139.384 13.6743 138.082 13.6195C136.601 13.5572 135.551 12.7068 134.956 11.4277C133.88 9.1236 131.939 8.22093 129.622 8.14114C126.145 8.02394 122.66 8.08378 119.18 8.12617C118.483 8.13366 117.764 8.33563 117.097 8.56504C115.949 8.96152 115.248 9.77941 115.103 11.0287C114.966 12.2181 115.559 13.1133 116.529 13.5347C118.254 14.2878 120.034 14.971 121.853 15.4323C126.274 16.5519 130.747 17.4646 135.167 18.5867C137.46 19.1677 139.605 20.185 141.552 21.5715C144.73 23.8306 146.057 26.9052 145.698 30.7852C145.327 34.7799 143.374 37.6051 139.722 39.2383C136.808 40.5425 133.706 41.0586 130.558 41.106C125.93 41.1758 121.283 41.303 116.679 40.9514C112.43 40.6273 108.612 38.9291 105.832 35.4631C104.751 34.1166 104.169 32.5581 104.196 30.7976C104.226 28.8926 105.299 27.7729 107.191 27.7355C108.246 27.7156 109.304 27.7505 110.362 27.7281C111.962 27.6956 113.177 28.4163 113.841 29.8077C115.053 32.3436 117.154 33.2264 119.753 33.2513C123.419 33.2862 127.088 33.2937 130.754 33.2314C131.663 33.2164 132.621 33.0144 133.46 32.6653C135.556 31.7951 135.814 29.2566 133.963 27.9525C132.058 26.6109 129.793 26.2269 127.593 25.6983C123.369 24.6859 119.111 23.7982 114.924 22.6462C113.065 22.135 111.263 21.2498 109.583 20.2748C105.51 17.9134 103.96 14.3576 104.694 9.68216C105.398 5.19125 108.261 2.73509 112.358 1.44343C115.29 0.518318 118.312 0.214103 121.371 0.209116C122.615 0.206623 123.857 0.209116 125.614 0.209116L125.617 0.214103Z" fill="white"/>
<path d="M59.962 20.6468C59.962 14.9765 59.9596 9.30613 59.962 3.63577C59.962 1.2594 60.7984 0.409097 63.153 0.414084C70.7644 0.429046 78.3759 0.419071 85.9874 0.491385C88.678 0.51632 91.294 1.09233 93.7432 2.26181C97.763 4.18186 99.9907 7.50079 100.777 11.7847C101.437 15.3755 101.399 18.9911 100.269 22.507C98.6864 27.4243 95.137 30.1997 90.2336 31.227C88.0956 31.6759 85.8654 31.8105 83.6726 31.8629C79.6354 31.9601 75.5957 31.9152 71.556 31.8704C70.6724 31.8604 70.4409 32.1521 70.4682 32.99C70.523 34.6382 70.4907 36.2915 70.4832 37.9422C70.4732 40.0019 69.4975 40.9843 67.469 40.9893C65.978 40.9943 64.4871 40.9943 62.9962 40.9893C61.0049 40.9843 59.9695 39.9545 59.967 37.9347C59.9571 32.1721 59.9645 26.407 59.9645 20.6444L59.962 20.6468ZM70.4857 16.1185C70.4857 18.455 70.5081 20.7915 70.4732 23.1254C70.4633 23.8286 70.7122 24.0356 71.3917 24.0281C74.9012 23.9982 78.4107 24.0506 81.9203 23.9782C83.1822 23.9533 84.4591 23.7538 85.6937 23.4745C87.4584 23.0781 88.9493 22.1604 89.7234 20.4474C90.9953 17.6371 91.0351 14.7471 89.7533 11.9493C88.6257 9.48317 86.3383 8.62788 83.8567 8.52315C79.6403 8.34361 75.414 8.38351 71.195 8.30371C70.4832 8.29125 70.4832 8.70019 70.4832 9.20389C70.4907 11.5079 70.4857 13.812 70.4857 16.1185Z" fill="white"/>
</svg>
