<svg width="25" height="24" viewBox="0 0 25 24" fill="none" xmlns="http://www.w3.org/2000/svg">
<g id="Group 112">
<ellipse id="Ellipse 37" cx="12.5" cy="12" rx="12.5" ry="12" fill="#ffffff"/>
<g id="Group 111">
<path id="Vector" d="M6.75449 11.7984C6.423 11.5111 5.92943 11.5695 5.66602 11.9054L6.05947 12.2139L5.66602 11.9054C5.41496 12.2255 5.44843 12.7038 5.76906 12.9792C5.76951 12.9796 5.76996 12.98 5.77041 12.9804L10.7818 17.3142C10.92 17.4351 11.0967 17.5 11.276 17.5H11.2761H11.2761H11.2762H11.2762H11.2762H11.2763H11.2763H11.2764H11.2764H11.2765H11.2765H11.2766H11.2766H11.2766H11.2767H11.2767H11.2768H11.2768H11.2769H11.2769H11.277H11.277H11.277H11.2771H11.2771H11.2772H11.2772H11.2773H11.2773H11.2774H11.2774H11.2774H11.2775H11.2775H11.2776H11.2776H11.2777H11.2777H11.2778H11.2778H11.2779H11.2779H11.2779H11.278H11.278H11.2781H11.2781H11.2782H11.2782H11.2783H11.2783H11.2784H11.2784H11.2784H11.2785H11.2785H11.2786H11.2786H11.2787H11.2787H11.2788H11.2788H11.2789H11.2789H11.2789H11.279H11.279H11.2791H11.2791H11.2792H11.2792H11.2793H11.2793H11.2794H11.2794H11.2794H11.2795H11.2795H11.2796H11.2796H11.2797H11.2797H11.2798H11.2798H11.2799H11.2799H11.28H11.28H11.2801H11.2801H11.2801H11.2802H11.2802H11.2803H11.2803H11.2804H11.2804H11.2805H11.2805H11.2806H11.2806H11.2807H11.2807H11.2808H11.2808H11.2808H11.2809H11.2809H11.281H11.281H11.2811H11.2811H11.2812H11.2812H11.2813H11.2813H11.2814H11.2814H11.2815H11.2815H11.2816H11.2816H11.2817H11.2817H11.2817H11.2818H11.2818H11.2819H11.2819H11.282H11.282H11.2821H11.2821H11.2822H11.2822H11.2823H11.2823H11.2824H11.2824H11.2825H11.2825H11.2826H11.2826H11.2827H11.2827H11.2828H11.2828H11.2828H11.2829H11.2829H11.283H11.283H11.2831H11.2831H11.2832H11.2832H11.2833H11.2833H11.2834H11.2834H11.2835H11.2835H11.2836H11.2836H11.2837H11.2837H11.2838H11.2838H11.2839H11.2839H11.284H11.284H11.2841H11.2841H11.2842H11.2842H11.2843H11.2843H11.2843H11.2844H11.2844H11.2845H11.2845H11.2846H11.2846H11.2847H11.2847H11.2848H11.2848H11.2849H11.2849H11.285H11.285H11.2851H11.2851H11.2852H11.2852H11.2853H11.2853H11.2854H11.2854H11.2855H11.2855H11.2856H11.2856H11.2857H11.2857H11.2858H11.2858H11.2859H11.2859H11.286H11.286H11.2861H11.2861H11.2862H11.2862H11.2863H11.2863H11.2864H11.2864H11.2865H11.2865H11.2866H11.2866H11.2867H11.2867H11.2868H11.2868H11.2869H11.2869H11.287H11.287H11.2871H11.2871H11.2872H11.2872H11.2873H11.2873H11.2874H11.2874H11.2875H11.2875H11.2876H11.2876H11.2877H11.2877H11.2878H11.2878H11.2879H11.2879H11.288H11.288H11.2881H11.2881H11.2882H11.2882H11.2883H11.2883H11.2884H11.2884H11.2885H11.2885H11.2886H11.2886H11.2887H11.2887H11.2888H11.2888H11.2889H11.2889H11.289H11.289H11.2891H11.2891H11.2892H11.2892H11.2893H11.2893H11.2894H11.2894H11.2895H11.2895H11.2896H11.2896H11.2897H11.2897H11.2898H11.2898H11.2899H11.2899H11.29H11.29H11.2901H11.2901H11.2902H11.2902H11.2903H11.2903H11.2904H11.2905H11.2905H11.2906H11.2906H11.2907H11.2907H11.2908H11.2908H11.2909H11.2909H11.291H11.291H11.2911H11.2911H11.2912H11.2912H11.2913H11.2913H11.2914H11.2914H11.2915H11.2915H11.2916H11.2916H11.2917H11.2917H11.2918H11.2918H11.2919H11.2919H11.292H11.292H11.2921H11.2921H11.2922H11.2922H11.2923H11.2923H11.2924H11.2925H11.2925H11.2926H11.2926H11.2927H11.2927H11.2928H11.2928H11.2929H11.2929H11.293H11.293H11.2931H11.2931H11.2932H11.2932H11.2933H11.2933H11.2934H11.2934H11.2935H11.2935H11.2936H11.2936H11.2937H11.2937H11.2938H11.2938H11.2939H11.294H11.294H11.2941H11.2941H11.2942H11.2942H11.2943H11.2943H11.2944H11.2944H11.2945H11.2945H11.2946H11.2946H11.2947H11.2947H11.2948H11.2948H11.2949H11.2949H11.295H11.295H11.2951H11.2951H11.2952H11.2953H11.2953H11.2954H11.2954H11.2955H11.2955H11.2956H11.2956H11.2957H11.2957H11.2958H11.2958H11.2959H11.2959H11.296H11.296H11.2961H11.2961H11.2962H11.2962H11.2963H11.2963H11.2964H11.2965H11.2965H11.2966H11.2966H11.2967H11.2967H11.2968H11.2968H11.2969H11.2969H11.297H11.297H11.2971H11.2971H11.2972H11.2972H11.2973H11.2973H11.2974H11.2974H11.2975H11.2975H11.2976H11.2977H11.2977H11.2978H11.2978H11.2979H11.2979H11.298H11.298H11.2981H11.2981H11.2982H11.2982H11.2983H11.2983H11.2984H11.2984H11.2985H11.2985H11.2986H11.2986H11.2987H11.2988H11.2988H11.2989H11.2989H11.299H11.299H11.2991H11.2991H11.2992H11.2992H11.2993H11.2993H11.2994H11.2994H11.2995H11.2995H11.2996H11.2996H11.2997H11.2998H11.2998H11.2999H11.2999H11.3H11.3H11.3001H11.3001H11.3002H11.3002H11.3003H11.3003H11.3004H11.3004H11.3005H11.3005H11.3006H11.3006H11.3007H11.3007H11.3008H11.3009H11.3009H11.301H11.301H11.3011H11.3011H11.3012H11.3012H11.3013H11.3013H11.3014H11.3014H11.3299L11.3582 17.4968C11.5621 17.4735 11.7483 17.3677 11.8736 17.205C11.8739 17.2045 11.8743 17.2041 11.8746 17.2036L19.1936 7.75445L19.1937 7.75425C19.4444 7.43034 19.4052 6.95483 19.0858 6.68183C18.7541 6.39818 18.2618 6.45402 17.9979 6.79517L11.1666 15.6152L6.75449 11.7984Z" fill="#522D6E" stroke="#522D6E"/>
</g>
</g>
</svg>
