<svg width="54" height="47" viewBox="0 0 54 47" fill="none" xmlns="http://www.w3.org/2000/svg">
<path d="M26.9928 23.2767C26.9059 23.2766 26.8196 23.2613 26.7379 23.2317C26.2133 23.0368 13.9375 18.4428 13.9375 7.89064C13.9415 5.80354 14.7728 3.80316 16.2493 2.32806C17.7259 0.852955 19.727 0.0234913 21.8141 0.0215111C23.7204 0.0165251 25.5626 0.709667 26.9928 1.97006C28.4229 0.709667 30.2651 0.0165251 32.1714 0.0215111C34.2585 0.0234913 36.2597 0.852955 37.7362 2.32806C39.2127 3.80316 40.044 5.80354 40.048 7.89064C40.048 18.4428 27.7722 23.0368 27.2476 23.2317C27.1659 23.2613 27.0797 23.2766 26.9928 23.2767ZM21.8141 1.54288C20.1239 1.54287 18.5029 2.21378 17.307 3.40822C16.1112 4.60266 15.4384 6.22294 15.4364 7.91312C15.4364 16.6216 25.2615 21.0358 26.9928 21.7403C28.724 21.0358 38.5491 16.6216 38.5491 7.91312C38.5471 6.22294 37.8743 4.60266 36.6785 3.40822C35.4826 2.21378 33.8616 1.54287 32.1714 1.54288C31.3027 1.54039 30.4428 1.71753 29.6457 2.06316C28.8487 2.4088 28.1317 2.91547 27.5398 3.55138C27.4697 3.62625 27.385 3.68594 27.2909 3.72675C27.1968 3.76756 27.0953 3.78861 26.9928 3.78861C26.8902 3.78861 26.7887 3.76756 26.6946 3.72675C26.6005 3.68594 26.5158 3.62625 26.4457 3.55138C25.8557 2.91139 25.1397 2.40053 24.3425 2.05098C23.5454 1.70143 22.6845 1.52077 21.8141 1.52039V1.54288Z" fill="white"/>
<path d="M14.6015 46.9363H14.564C14.3718 46.9267 14.1907 46.8435 14.0581 46.704C13.9256 46.5644 13.8518 46.3793 13.8521 46.1868L14.1443 40.1463L6.48505 32.2248C6.4267 32.1657 6.37858 32.0973 6.34266 32.0224L1.09657 20.6609C1.05239 20.5668 1.02694 20.465 1.02163 20.3611L0.766819 9.33684C0.747072 8.69556 0.972851 8.07092 1.39806 7.59047C1.82326 7.11002 2.41582 6.81 3.05475 6.75165C3.69368 6.69331 4.33078 6.88104 4.83598 7.27653C5.34117 7.67202 5.67635 8.24543 5.77308 8.87968L7.33192 17.3409C7.3677 17.5396 7.32305 17.7445 7.2078 17.9103C7.09255 18.0762 6.91614 18.1894 6.71738 18.2252C6.51861 18.261 6.31378 18.2163 6.14793 18.1011C5.98209 17.9858 5.86882 17.8094 5.83304 17.6107L4.29668 9.13449C4.2532 8.88317 4.11966 8.6563 3.92103 8.4963C3.72241 8.33629 3.47231 8.25412 3.21749 8.26514C2.9551 8.28247 2.70956 8.40053 2.53218 8.59467C2.35481 8.7888 2.25933 9.04398 2.2657 9.30686L2.49803 20.1738L7.65418 31.273L15.4484 39.2995C15.5215 39.3711 15.5782 39.4578 15.6145 39.5536C15.6507 39.6494 15.6656 39.7519 15.6582 39.8541L15.3434 46.2243C15.3339 46.4152 15.2518 46.5953 15.1138 46.7276C14.9759 46.86 14.7926 46.9346 14.6015 46.9363Z" fill="white"/>
<path d="M23.6311 46.9362C23.4324 46.9362 23.2417 46.8573 23.1012 46.7167C22.9606 46.5762 22.8817 46.3855 22.8817 46.1868V32.8917L21.4578 30.7108C19.3598 27.4857 16.4213 24.8944 12.9591 23.2164C12.8747 23.1725 12.7986 23.1141 12.7343 23.044L8.35003 18.2701C8.14818 18.0963 7.8895 18.0027 7.62315 18.007C7.3568 18.0114 7.10133 18.1134 6.90527 18.2938C6.70921 18.4741 6.58622 18.7202 6.55966 18.9852C6.53311 19.2503 6.60483 19.5159 6.76122 19.7315C12.5769 26.5439 15.5821 30.7783 15.6946 32.2996C15.7019 32.398 15.6899 32.497 15.659 32.5907C15.6282 32.6845 15.5792 32.7712 15.5148 32.846C15.4504 32.9208 15.3719 32.9822 15.2838 33.0267C15.1957 33.0712 15.0997 33.0979 15.0013 33.1053C14.9029 33.1127 14.804 33.1006 14.7102 33.0697C14.6165 33.0389 14.5297 32.9899 14.4549 32.9255C14.3801 32.8611 14.3187 32.7827 14.2742 32.6946C14.2297 32.6065 14.2031 32.5105 14.1957 32.412C14.1282 31.5802 11.8499 28.0128 5.61457 20.7058C5.37344 20.4218 5.19654 20.089 5.09597 19.7303C4.99541 19.3715 4.97356 18.9953 5.03192 18.6273C5.09028 18.2594 5.22748 17.9084 5.43411 17.5983C5.64075 17.2883 5.91194 17.0266 6.22912 16.8312C6.74061 16.5173 7.34514 16.3906 7.93962 16.4726C8.53411 16.5546 9.08175 16.8402 9.48918 17.2808L13.746 21.9798C17.4 23.7694 20.506 26.5079 22.7393 29.9089L24.2906 32.2771C24.3663 32.4015 24.4077 32.5438 24.4105 32.6893V46.1793C24.4116 46.2809 24.3921 46.3817 24.353 46.4755C24.3139 46.5693 24.2562 46.6542 24.1833 46.725C24.1104 46.7958 24.0238 46.851 23.9289 46.8873C23.834 46.9237 23.7327 46.9403 23.6311 46.9362Z" fill="white"/>
<path d="M39.3942 46.9362C39.1954 46.9362 39.0048 46.8573 38.8643 46.7167C38.7237 46.5762 38.6448 46.3855 38.6448 46.1868L38.33 39.8165C38.3225 39.7144 38.3375 39.6119 38.3737 39.5161C38.41 39.4203 38.4666 39.3336 38.5398 39.2619L46.3415 31.2729L51.4977 20.1737L51.73 9.30679C51.7334 9.05039 51.6401 8.80211 51.4687 8.61146C51.2972 8.4208 51.0601 8.30179 50.8048 8.27815C50.5495 8.25451 50.2946 8.32797 50.0911 8.4839C49.8875 8.63983 49.7502 8.86675 49.7065 9.11943L48.1402 17.6106C48.1224 17.709 48.0855 17.803 48.0315 17.8871C47.9775 17.9713 47.9074 18.0439 47.8253 18.101C47.6594 18.2163 47.4546 18.2609 47.2558 18.2251C47.0571 18.1894 46.8806 18.0761 46.7654 17.9102C46.6502 17.7444 46.6055 17.5396 46.6413 17.3408L48.2301 8.86462C48.3386 8.23999 48.6787 7.67926 49.1825 7.2944C49.6863 6.90955 50.3167 6.72889 50.9479 6.78851C51.579 6.84812 52.1645 7.14362 52.5873 7.616C53.0102 8.08838 53.2393 8.70287 53.2289 9.33676L52.9965 20.361C52.9912 20.4649 52.9658 20.5667 52.9216 20.6608L47.6755 32.0223C47.6396 32.0972 47.5915 32.1656 47.5331 32.2247L39.8513 40.1088L40.1436 46.1493C40.1439 46.3417 40.0701 46.5269 39.9375 46.6664C39.805 46.8059 39.6239 46.8891 39.4317 46.8987L39.3942 46.9362Z" fill="white"/>
<path d="M30.3588 46.9365C30.1601 46.9365 29.9694 46.8575 29.8289 46.717C29.6883 46.5765 29.6094 46.3858 29.6094 46.1871V32.6971C29.6122 32.5516 29.6536 32.4093 29.7293 32.2849L31.2806 29.9167C33.5047 26.517 36.6 23.7762 40.2439 21.9801L44.5307 17.3111C44.9382 16.8705 45.4858 16.5848 46.0803 16.5028C46.6748 16.4208 47.2793 16.5476 47.7908 16.8614C48.108 17.0569 48.3792 17.3186 48.5858 17.6286C48.7924 17.9386 48.9296 18.2896 48.988 18.6576C49.0464 19.0256 49.0245 19.4018 48.9239 19.7605C48.8234 20.1193 48.6465 20.452 48.4053 20.7361C42.17 28.0431 39.8917 31.6104 39.8242 32.4423C39.8093 32.6411 39.7161 32.8258 39.565 32.9558C39.4139 33.0858 39.2174 33.1505 39.0186 33.1355C38.8198 33.1206 38.6351 33.0274 38.5051 32.8763C38.3751 32.7252 38.3105 32.5287 38.3254 32.3299C38.4378 30.831 41.443 26.5742 47.2587 19.7618C47.4355 19.5442 47.5214 19.2668 47.4985 18.9874C47.4755 18.708 47.3455 18.4483 47.1355 18.2625C46.9256 18.0767 46.652 17.9793 46.3718 17.9905C46.0917 18.0018 45.8268 18.1209 45.6324 18.3229L41.2332 23.0743C41.1689 23.1444 41.0928 23.2028 41.0084 23.2467C37.5461 24.9247 34.6076 27.5159 32.5097 30.7411L31.0858 32.922V46.1871C31.0859 46.382 31.01 46.5693 30.8743 46.7092C30.7386 46.8491 30.5537 46.9307 30.3588 46.9365Z" fill="white"/>
</svg>
