<svg width="43" height="56" viewBox="0 0 43 56" fill="none" xmlns="http://www.w3.org/2000/svg">
<path d="M27.8478 28.5991H27.6356V25.5576C27.6356 25.5227 27.6212 25.4933 27.6157 25.4597C30.6681 23.3673 32.6941 19.7856 32.7161 15.7178C33.5274 11.5165 33.0673 8.34086 31.3487 6.27649C29.8109 4.42986 27.7369 4.0656 26.9139 3.99439C23.639 -0.0576586 19.8389 0.0950295 17.2049 0.957066C13.0508 2.31551 9.04806 6.50587 9.02136 7.5918C9.01725 7.77325 9.08504 7.94853 9.20965 8.08068C10.1326 9.0509 10.2627 12.56 10.1258 14.9886C10.1258 15.0187 10.1176 15.0495 10.121 15.079C10.1093 15.2769 10.0963 15.4693 10.0813 15.65C10.0813 19.7993 12.1689 23.4446 15.3048 25.5357C15.3048 25.5432 15.3007 25.5494 15.3007 25.5569V28.5991H15.1569C7.2473 28.5991 0.8125 35.8952 0.8125 44.8634V54.6176C0.8125 54.9963 1.11856 55.3023 1.4972 55.3023H41.5028C41.8814 55.3023 42.1875 54.9963 42.1875 54.6176V44.8579C42.1875 35.8925 35.7541 28.5991 27.8478 28.5991ZM23.5651 33.4036C23.4103 34.4258 22.5346 35.2139 21.4692 35.2139C20.3805 35.2139 19.4918 34.3902 19.3665 33.3351L21.3672 32.1116L23.5651 33.4036ZM21.5 52.96C20.462 51.1044 19.5637 49.2612 18.7859 47.4707L20.1094 36.3074C20.5277 36.4847 20.9872 36.5826 21.4692 36.5826C21.9512 36.5826 22.4107 36.4847 22.829 36.3074L24.1655 47.583C23.3987 49.3379 22.5168 51.1421 21.5 52.96ZM25.2364 44.9839L24.0971 35.368C24.4093 35.0092 24.6448 34.5888 24.7907 34.1246L28.0012 36.013C27.4192 38.5128 26.5428 41.6056 25.2364 44.9839ZM18.1361 34.0869C18.2805 34.5662 18.5209 34.9996 18.8413 35.368L17.7164 44.8566C16.4373 41.5255 15.5739 38.4752 14.9988 36.0054L18.1361 34.0869ZM19.3535 51.8535C11.0803 44.1185 9.88339 33.4303 9.72797 31.3399C10.6283 30.8613 11.5835 30.4957 12.5804 30.2642C12.7824 32.0842 14.0553 41.5953 19.3535 51.8535ZM30.4196 30.2636C31.3008 30.4683 32.1498 30.7757 32.9571 31.1749C32.8571 32.7477 31.8958 43.3317 23.9608 51.2427C28.9995 41.2181 30.2217 32.0445 30.4196 30.2636ZM29.068 30.0362C29.0105 30.5799 28.8105 32.2259 28.3128 34.6066L23.1316 31.559C24.397 31.3495 25.6335 30.9044 26.7722 30.2129L27.1748 29.9685H27.8472C28.2594 29.9685 28.6661 29.9931 29.068 30.0362ZM19.1172 1.90537C21.778 1.52126 24.1067 2.58596 26.0272 5.08032C26.1566 5.24876 26.3566 5.34736 26.5695 5.34736C26.5736 5.34736 26.577 5.34667 26.5791 5.34736C26.6565 5.34736 28.8105 5.3679 30.297 7.15359C31.3001 8.3573 31.7677 10.0862 31.7226 12.2895C29.8794 8.37441 26.4928 7.22549 26.3162 7.16866C26.1238 7.1043 25.9136 7.13168 25.7424 7.23918C25.5712 7.34668 25.4555 7.52333 25.4268 7.72326C25.4268 7.72737 25.3371 8.10464 24.8427 8.45932C24.1388 8.96736 22.6174 9.44802 19.3754 8.85439C15.3226 8.11217 12.8694 10.2272 11.5205 12.1368C11.4493 10.4573 11.1973 8.60036 10.5003 7.51991C11.2774 6.34086 15.0501 2.49558 19.1172 1.90537ZM11.4479 15.7089C11.4561 15.6089 11.4733 15.385 11.4911 15.0865C11.7793 14.2416 13.7321 9.21659 19.1289 10.1998C22.1101 10.7476 24.3038 10.5333 25.6431 9.56921C26.0334 9.2878 26.2922 8.98311 26.462 8.71128C27.7089 9.31998 30.6017 11.1947 31.3439 15.7014C31.3172 21.4022 26.8674 26.0314 21.3987 26.0314C15.9135 26.0314 11.4507 21.3748 11.4479 15.7089ZM21.3994 27.4008C23.1433 27.4008 24.79 26.977 26.2662 26.2423V28.8962C26.2573 28.9085 26.2491 28.9209 26.2409 28.9339L26.0608 29.0427C23.246 30.7538 19.7431 30.762 16.9194 29.0653L16.6955 28.9311C16.6873 28.9181 16.679 28.9058 16.6701 28.8935V26.3122C18.1114 27.0037 19.7095 27.4008 21.3994 27.4008ZM15.7622 29.9685L16.2148 30.2396C17.3021 30.8928 18.4771 31.3214 19.6801 31.5371L14.6852 34.5909C14.1895 32.2197 13.9895 30.5799 13.932 30.0369C14.3353 29.9931 14.7434 29.9685 15.1569 29.9685H15.7622ZM2.1819 44.8634C2.1819 39.4769 4.68516 34.7497 8.42704 32.1335C8.79815 35.6076 10.6578 46.4409 19.6362 53.9329H2.1819V44.8634ZM40.8181 53.9329H23.0378C32.2053 46.2835 33.9499 35.1544 34.2676 31.9287C38.1765 34.4964 40.8181 39.3283 40.8181 44.8579V53.9329Z" fill="white"/>
</svg>
