<svg width="53" height="48" viewBox="0 0 53 48" fill="none" xmlns="http://www.w3.org/2000/svg">
<path d="M32.2162 0.595703L11.6531 6.521V20.3518C11.6538 21.3265 11.7072 22.3006 11.8129 23.2696C11.6173 23.3486 11.4322 23.4515 11.2618 23.5759C10.7113 23.9794 9.84038 24.9815 10.2006 27.1731C10.2006 27.1837 10.2041 27.1942 10.2064 27.2048C10.9092 30.6099 9.54227 31.6061 8.22098 32.5696C7.74972 32.883 7.32181 33.2571 6.94831 33.6824C6.76577 33.6127 6.57208 33.5767 6.37668 33.5763H1.68365C1.254 33.5767 0.842006 33.7474 0.538081 34.0511C0.234157 34.3548 0.0631203 34.7667 0.0625 35.1963V45.4521C0.0624999 45.8822 0.233262 46.2947 0.537254 46.5989C0.841246 46.9031 1.25359 47.0741 1.68365 47.0745H6.37668C6.59582 47.0746 6.8127 47.0302 7.01408 46.9438C7.21547 46.8574 7.39715 46.7309 7.54804 46.5719C8.22701 47.1166 9.07307 47.4103 9.94346 47.4036H21.0397C21.8846 47.3915 22.6967 47.0745 23.3263 46.511C23.9559 45.9475 24.3606 45.1754 24.4659 44.337L24.5907 43.6477C26.8903 45.0756 29.3916 46.1499 32.0106 46.8343L32.2132 46.8876L32.4159 46.8343C38.3575 45.2923 43.5928 41.7641 47.2523 36.8356C50.8141 32.076 52.7499 26.2965 52.7734 20.3518V6.521L32.2162 0.595703ZM6.40011 45.4521C6.39948 45.4581 6.3968 45.4637 6.39254 45.468C6.38828 45.4722 6.38268 45.4749 6.37668 45.4756H1.68365C1.67755 45.475 1.67182 45.4724 1.66744 45.4682C1.66306 45.4639 1.6603 45.4582 1.65964 45.4521V35.1963C1.66017 35.1901 1.66287 35.1843 1.66726 35.1799C1.67166 35.1756 1.67746 35.1729 1.68365 35.1723H6.37668C6.38277 35.173 6.38844 35.1757 6.39271 35.1801C6.39699 35.1845 6.3996 35.1902 6.40011 35.1963V45.4521ZM21.042 45.8035H9.94229C8.88807 45.8035 7.99725 45.0931 7.99725 44.2515V35.1963C7.99725 34.753 8.3346 34.4631 9.16217 33.8598C10.5613 32.8402 12.6762 31.2987 11.7743 26.8985C11.6167 25.9221 11.7743 25.1813 12.2059 24.8644C12.452 24.7286 12.7301 24.6615 13.011 24.6703C13.292 24.679 13.5654 24.7633 13.8025 24.9142C14.3938 25.2529 14.8791 25.7496 15.2039 26.3487C15.5288 26.9478 15.6803 27.6255 15.6415 28.3058V33.6355C15.6415 33.8474 15.7257 34.0506 15.8755 34.2004C16.0253 34.3502 16.2285 34.4344 16.4404 34.4344H22.6298C22.8667 34.4421 23.0989 34.5023 23.3097 34.6107C23.5204 34.719 23.7045 34.8729 23.8486 35.061C24.1343 35.368 24.3006 35.7671 24.3171 36.1861L23.2383 42.16L22.8969 44.05C22.8507 44.5171 22.6373 44.9518 22.2961 45.2741C21.9549 45.5965 21.5087 45.7847 21.0397 45.8041L21.042 45.8035ZM51.1763 20.3518C51.184 26.005 49.3319 31.5037 45.9056 36.0002C42.4792 40.4968 37.6688 43.7413 32.2162 45.2337C29.6171 44.533 27.1459 43.4235 24.8952 41.9468L25.8844 36.4702C25.912 36.0172 25.8493 35.5633 25.7001 35.1348C25.5508 34.7062 25.318 34.3116 25.015 33.9738C24.712 33.636 24.3449 33.3617 23.935 33.1669C23.5252 32.9721 23.0807 32.8606 22.6275 32.839H17.2363V28.3058C17.2766 27.3304 17.0443 26.363 16.5653 25.5123C16.0862 24.6615 15.3796 23.9612 14.5246 23.4898C14.172 23.3085 13.7938 23.1819 13.4031 23.1144C13.3021 22.197 13.2513 21.2747 13.2508 20.3518V7.72281L32.2162 2.25844L51.1792 7.72281L51.1763 20.3518ZM20.922 23.7434C20.9221 26.3556 21.8279 28.8869 23.4851 30.906C25.1423 32.9252 27.4484 34.3073 30.0104 34.8168C32.5724 35.3263 35.2317 34.9317 37.5354 33.7003C39.8391 32.4688 41.6445 30.4767 42.644 28.0633C43.6436 25.65 43.7754 22.9647 43.0171 20.4651C42.2587 17.9654 40.6571 15.8061 38.4851 14.3549C36.3132 12.9037 33.7052 12.2506 31.1056 12.5067C28.5061 12.7628 26.0757 13.9123 24.2287 15.7595C23.1771 16.8056 22.3434 18.0499 21.7758 19.4203C21.2082 20.7907 20.918 22.2601 20.922 23.7434ZM32.2162 14.0493C34.4591 14.0487 36.6327 14.8259 38.3668 16.2484C40.1009 17.6709 41.2881 19.6507 41.7261 21.8504C42.164 24.0501 41.8257 26.3337 40.7687 28.3119C39.7117 30.2901 38.0015 31.8406 35.9294 32.6992C33.8574 33.5577 31.5517 33.6713 29.4054 33.0204C27.259 32.3695 25.4047 30.9945 24.1585 29.1297C22.9123 27.2649 22.3513 25.0256 22.5711 22.7935C22.7908 20.5615 23.7778 18.4746 25.3638 16.8887C26.2616 15.986 27.3295 15.2702 28.5057 14.7829C29.6819 14.2955 30.943 14.0462 32.2162 14.0493ZM26.5831 23.4588C26.7141 23.2923 26.9058 23.1846 27.1161 23.1595C27.3265 23.1343 27.5382 23.1938 27.7047 23.3247L31.1889 26.0645L36.6117 19.8006C36.7519 19.646 36.947 19.5524 37.1553 19.5398C37.3636 19.5272 37.5686 19.5966 37.7264 19.7332C37.8842 19.8698 37.9822 20.0627 37.9996 20.2707C38.017 20.4787 37.9523 20.6852 37.8193 20.8461L31.8981 27.6885C31.7638 27.8438 31.5748 27.9414 31.3704 27.9609C31.166 27.9804 30.9619 27.9204 30.8006 27.7934L26.7173 24.5827C26.6344 24.5179 26.5652 24.4373 26.5136 24.3457C26.462 24.254 26.429 24.1531 26.4166 24.0486C26.4041 23.9442 26.4124 23.8383 26.441 23.7371C26.4696 23.6359 26.5179 23.5413 26.5831 23.4588Z" fill="white"/>
</svg>
